<?xml version="1.0" encoding="UTF-8" standalone="no"?>
<!-- Generator: Adobe Illustrator 25.2.2, SVG Export Plug-In . SVG Version: 6.00 Build 0)  -->

<svg
   version="1.1"
   x="0px"
   y="0px"
   viewBox="0 0 3138.24 1765.26"
   style="enable-background:new 0 0 3138.24 1765.26;"
   xml:space="preserve"
   id="svg109"
   sodipodi:docname="schematic.svg"
   inkscape:version="1.3 (0e150ed6c4, 2023-07-21)"
   xmlns:inkscape="http://www.inkscape.org/namespaces/inkscape"
   xmlns:sodipodi="http://sodipodi.sourceforge.net/DTD/sodipodi-0.dtd"
   xmlns="http://www.w3.org/2000/svg"
   xmlns:svg="http://www.w3.org/2000/svg"><defs
   id="defs109"><linearGradient
     id="SVGID_22_"
     gradientUnits="userSpaceOnUse"
     x1="1198.868"
     y1="1024.9628"
     x2="2208.8442"
     y2="1024.9628"
     gradientTransform="rotate(90,2075.97,1483.4616)">&#10;		<stop
   offset="0"
   style="stop-color:#FFFFFF"
   id="stop194" />&#10;		<stop
   offset="1"
   style="stop-color:#C6C5C5"
   id="stop195" />&#10;	</linearGradient><linearGradient
     id="SVGID_19_"
     gradientUnits="userSpaceOnUse"
     x1="3399.218"
     y1="-30.2502"
     x2="3399.218"
     y2="-134.2883"
     gradientTransform="translate(-1592.4994,1842.63)">&#10;				<stop
   offset="0"
   style="stop-color:#FFFFFF"
   id="stop163" />&#10;				<stop
   offset="1"
   style="stop-color:#D8D8D8"
   id="stop164" />&#10;			</linearGradient><linearGradient
     id="SVGID_20_"
     gradientUnits="userSpaceOnUse"
     x1="3652.8035"
     y1="-235.2598"
     x2="3965.1455"
     y2="-235.2598"
     gradientTransform="translate(-1592.4994,1842.63)">&#10;				<stop
   offset="0"
   style="stop-color:#FFFFFF"
   id="stop165" />&#10;				<stop
   offset="1"
   style="stop-color:#D8D8D8"
   id="stop166" />&#10;			</linearGradient><linearGradient
     id="SVGID_21_"
     gradientUnits="userSpaceOnUse"
     x1="1945.2538"
     y1="-370.89569"
     x2="2280.9888"
     y2="-706.63068"
     gradientTransform="translate(-83.835,2197.0847)">&#10;				<stop
   offset="0"
   style="stop-color:#1A4385"
   id="stop167" />&#10;				<stop
   offset="0.2286"
   style="stop-color:#1D4586"
   id="stop168" />&#10;				<stop
   offset="0.3776"
   style="stop-color:#254C8A"
   id="stop169" />&#10;				<stop
   offset="0.5041"
   style="stop-color:#345891"
   id="stop170" />&#10;				<stop
   offset="0.6178"
   style="stop-color:#49689A"
   id="stop171" />&#10;				<stop
   offset="0.7231"
   style="stop-color:#657EA6"
   id="stop172" />&#10;				<stop
   offset="0.8221"
   style="stop-color:#8698B5"
   id="stop173" />&#10;				<stop
   offset="0.9144"
   style="stop-color:#ADB7C6"
   id="stop174" />&#10;				<stop
   offset="1"
   style="stop-color:#D9D9D9"
   id="stop175" />&#10;			</linearGradient></defs><sodipodi:namedview
   id="namedview109"
   pagecolor="#ffffff"
   bordercolor="#000000"
   borderopacity="0.25"
   inkscape:showpageshadow="2"
   inkscape:pageopacity="0.0"
   inkscape:pagecheckerboard="0"
   inkscape:deskcolor="#d1d1d1"
   inkscape:zoom="0.63630237"
   inkscape:cx="1643.8725"
   inkscape:cy="711.13989"
   inkscape:window-width="3840"
   inkscape:window-height="2080"
   inkscape:window-x="-11"
   inkscape:window-y="-11"
   inkscape:window-maximized="1"
   inkscape:current-layer="Layer_1" />&#10;<style
   type="text/css"
   id="style1">&#10;	.st0{fill:#373836;}&#10;	.st1{fill:#808180;}&#10;	.st2{fill:#FFFFFF;}&#10;	.st3{fill:none;stroke:#585856;stroke-width:1.125;stroke-miterlimit:10;}&#10;	.st4{fill:#EDECEC;}&#10;	.st5{fill:#FFFFFF;stroke:#595957;stroke-width:1.1339;stroke-miterlimit:10;}&#10;	.st6{opacity:0.54;fill:#FFFFFF;}&#10;	.st7{fill:#EDEBEB;}&#10;	.st8{fill:#C6C5C5;}&#10;	.st9{opacity:0.32;fill:#221E20;}&#10;	.st10{fill:#3C3C3B;}&#10;	.st11{fill:#00394A;}&#10;	.st12{fill:none;stroke:#72716F;stroke-width:1.1339;stroke-miterlimit:10;}&#10;	.st13{fill:#E4F2F9;stroke:#595957;stroke-width:0.5;stroke-miterlimit:10;}&#10;	.st14{fill:#E5F3FA;}&#10;	.st15{fill:#1D1E1C;}&#10;	.st16{opacity:0.7;fill:#1D1E1C;}&#10;	.st17{opacity:0.9;fill:#221E20;}&#10;	.st18{fill:#C7D6DE;}&#10;	.st19{fill:#585856;}&#10;	.st20{fill:#010100;}&#10;	.st21{font-family:'Calibri-Bold';}&#10;	.st22{font-size:78px;}&#10;	.st23{font-family:'Calibri';}&#10;	.st24{font-size:52px;}&#10;	.st25{fill:#F1F1F1;stroke:#000000;stroke-width:0.75;stroke-miterlimit:10;}&#10;	.st26{fill:url(#SVGID_1_);stroke:#000000;stroke-width:0.75;stroke-miterlimit:10;}&#10;	.st27{font-family:'AktivGrotesk-Bold';}&#10;	.st28{font-size:52.0252px;}&#10;	.st29{fill:url(#SVGID_2_);stroke:#111312;stroke-width:0.75;stroke-linejoin:round;stroke-miterlimit:10;}&#10;	.st30{fill:url(#SVGID_3_);stroke:#111312;stroke-width:0.75;stroke-linejoin:round;stroke-miterlimit:10;}&#10;	.st31{fill:#D9D9D9;stroke:#868686;stroke-width:0.25;stroke-miterlimit:10;}&#10;	.st32{fill:#FFFFFF;stroke:#1D1D1B;stroke-width:0.4337;stroke-miterlimit:10;}&#10;	.st33{fill:url(#SVGID_4_);stroke:#1D1E1C;stroke-width:0.5;stroke-linecap:round;stroke-linejoin:round;stroke-miterlimit:10;}&#10;	.st34{fill:url(#SVGID_5_);stroke:#1D1E1C;stroke-width:0.5;stroke-miterlimit:10;}&#10;	.st35{fill:url(#SVGID_6_);stroke:#1D1E1C;stroke-width:0.5;stroke-linecap:round;stroke-linejoin:round;stroke-miterlimit:10;}&#10;	.st36{fill:none;stroke:#1D1E1C;stroke-width:0.5;stroke-miterlimit:10;}&#10;	.st37{fill:none;stroke:#1D1E1C;stroke-width:2.8346;stroke-miterlimit:10;}&#10;	.st38{fill:none;stroke:#FCE921;stroke-width:2.8346;stroke-miterlimit:10;}&#10;	.st39{fill:none;stroke:#009540;stroke-width:2.8346;stroke-miterlimit:10;}&#10;	.st40{fill:none;stroke:#E00C19;stroke-width:2.8346;stroke-miterlimit:10;}&#10;	.st41{fill:#FFFFFF;stroke:#1D1E1C;stroke-width:0.5;stroke-miterlimit:10;}&#10;	.st42{fill:none;stroke:#3C3C3B;stroke-width:23;stroke-miterlimit:10;}&#10;	.st43{font-family:'Calibri-Italic';}&#10;</style>&#10;<g
   id="WIRING">&#10;</g>&#10;<g
   id="Layer_1">&#10;	<g
   id="g4"
   transform="rotate(180,869.79309,859.70137)">&#10;		<g
   id="g3">&#10;			<g
   id="g2">&#10;				<path
   class="st0"
   d="m 1496.49,1226.63 v 76.87 9.61 4.8 c -0.01,1.62 0.03,3.16 -0.03,4.86 -0.11,3.33 -0.08,6.67 -0.41,9.99 l -0.38,4.99 -0.62,4.96 c -0.35,3.32 -1.04,6.59 -1.6,9.88 -0.26,1.65 -0.71,3.26 -1.06,4.89 -0.39,1.62 -0.72,3.26 -1.16,4.87 l -1.37,4.82 c -0.23,0.8 -0.44,1.61 -0.7,2.4 l -0.8,2.37 -1.61,4.74 -1.83,4.66 c -9.88,24.82 -26.17,46.95 -46.66,64.04 -10.28,8.49 -21.6,15.75 -33.63,21.53 -12.07,5.67 -24.81,10 -37.91,12.56 -3.29,0.56 -6.56,1.26 -9.88,1.61 l -4.96,0.63 -4.99,0.39 c -3.32,0.32 -6.66,0.32 -9.99,0.42 -1.7,0.06 -3.26,0.03 -4.87,0.04 h -4.8 -38.44 -76.87 -153.74 -614.96 v -25.7 h 614.96 153.74 76.87 38.44 4.8 c 1.57,-0.01 3.3,0.02 4.62,-0.04 2.81,-0.1 5.62,-0.07 8.42,-0.36 l 4.2,-0.32 4.17,-0.54 c 2.79,-0.28 5.53,-0.89 8.3,-1.35 11,-2.15 21.68,-5.79 31.83,-10.54 10.1,-4.85 19.61,-10.96 28.27,-18.1 17.23,-14.38 30.95,-33.01 39.23,-53.84 l 1.54,-3.91 1.34,-3.98 0.68,-1.99 c 0.22,-0.67 0.39,-1.35 0.58,-2.02 l 1.15,-4.04 c 0.38,-1.35 0.64,-2.73 0.97,-4.09 0.29,-1.37 0.69,-2.72 0.9,-4.1 0.46,-2.76 1.06,-5.5 1.34,-8.3 l 0.53,-4.17 0.31,-4.2 c 0.29,-2.79 0.24,-5.61 0.35,-8.42 l 0.03,-1.05 v -1.18 -2.4 -4.8 -9.61 -76.87 h 25.7 z"
   id="path1" />&#10;				<path
   class="st1"
   d="m 1509.34,1226.63 v 76.87 9.61 4.8 2.4 1.22 l -0.03,1.35 c -0.11,3.59 -0.1,7.19 -0.44,10.78 l -0.41,5.38 -0.67,5.36 c -0.38,3.58 -1.11,7.12 -1.73,10.67 -0.28,1.78 -0.77,3.52 -1.15,5.28 -0.42,1.75 -0.78,3.52 -1.26,5.26 l -1.47,5.2 c -0.25,0.86 -0.48,1.74 -0.76,2.6 l -0.86,2.56 -1.74,5.12 -1.97,5.03 c -10.67,26.81 -28.26,50.7 -50.37,69.14 -11.1,9.17 -23.31,17.01 -36.31,23.24 -13.04,6.13 -26.8,10.8 -40.95,13.57 -3.55,0.61 -7.08,1.36 -10.66,1.74 l -5.36,0.68 -5.38,0.42 c -3.59,0.34 -7.18,0.35 -10.78,0.45 -1.89,0.06 -3.36,0.03 -4.99,0.04 h -4.8 -38.44 -76.87 -153.74 -614.98 v -12.85 h 614.96 153.74 76.87 38.44 4.8 c 1.61,-0.01 3.17,0.02 4.87,-0.04 3.33,-0.1 6.67,-0.09 9.99,-0.42 l 4.99,-0.39 4.96,-0.63 c 3.32,-0.35 6.59,-1.05 9.88,-1.61 13.1,-2.56 25.84,-6.89 37.91,-12.56 12.03,-5.77 23.34,-13.03 33.63,-21.53 20.49,-17.08 36.78,-39.22 46.66,-64.04 l 1.83,-4.66 1.61,-4.74 0.8,-2.37 c 0.26,-0.79 0.46,-1.6 0.7,-2.4 l 1.37,-4.82 c 0.45,-1.61 0.77,-3.25 1.16,-4.87 0.35,-1.63 0.81,-3.24 1.06,-4.89 0.57,-3.29 1.25,-6.56 1.6,-9.88 l 0.62,-4.96 0.38,-4.99 c 0.33,-3.32 0.3,-6.66 0.41,-9.99 0.06,-1.7 0.02,-3.24 0.03,-4.86 v -4.8 -9.61 -76.87 h 12.85 z"
   id="path2" />&#10;			</g>&#10;		</g>&#10;	</g>&#10;	&#10;	&#10;	<g
   id="g35"
   transform="rotate(180,869.79309,859.70137)">&#10;		<g
   id="g29">&#10;			<rect
   x="1462.87"
   y="1064.52"
   class="st14"
   width="56.950001"
   height="54.450001"
   id="rect20" />&#10;			<rect
   x="1462.87"
   y="1064.52"
   class="st6"
   width="5"
   height="54.450001"
   id="rect21" />&#10;			<rect
   x="1511.0699"
   y="1064.52"
   class="st9"
   width="8.7399998"
   height="54.450001"
   id="rect22" />&#10;			<path
   class="st11"
   d="m 1521.32,1120.5 h -59.94 v -57.51 h 59.94 z m -56.95,-3.06 h 53.95 v -51.39 h -53.95 z"
   id="path22" />&#10;			<rect
   x="1462.87"
   y="1118.2"
   class="st15"
   width="66.660004"
   height="129.19"
   id="rect23" />&#10;			<rect
   x="1453.16"
   y="1118.2"
   class="st16"
   width="9.71"
   height="129.19"
   id="rect24" />&#10;			<rect
   x="1513.99"
   y="1118.2"
   class="st17"
   width="15.55"
   height="129.19"
   id="rect25" />&#10;			<path
   class="st11"
   d="m 1531.03,1248.92 h -79.37 v -132.25 h 79.37 z m -76.37,-3.06 h 73.38 v -126.13 h -73.38 z"
   id="path25" />&#10;			<path
   class="st18"
   d="m 1473.7,1105.18 h -4.34 c -0.46,0 -0.83,-0.38 -0.83,-0.85 v -32.54 c 0,-0.47 0.37,-0.85 0.83,-0.85 h 4.34 c 0.46,0 0.83,0.38 0.83,0.85 v 32.54 c 0,0.46 -0.37,0.85 -0.83,0.85 z"
   id="path26" />&#10;			<path
   class="st18"
   d="m 1513.16,1105.18 h -4.34 c -0.46,0 -0.83,-0.38 -0.83,-0.85 v -32.54 c 0,-0.47 0.37,-0.85 0.83,-0.85 h 4.34 c 0.46,0 0.83,0.38 0.83,0.85 v 32.54 c 0,0.46 -0.37,0.85 -0.83,0.85 z"
   id="path27" />&#10;			<path
   class="st11"
   d="m 1473.79,1105.74 h -4.34 c -1.01,0 -1.83,-0.84 -1.83,-1.87 v -32.28 c 0,-1.03 0.82,-1.87 1.83,-1.87 h 4.34 c 1.01,0 1.83,0.84 1.83,1.87 v 32.28 c 0,1.03 -0.82,1.87 -1.83,1.87 z m -4.18,-2.04 h 4.01 v -31.94 h -4.01 z"
   id="path28" />&#10;			<path
   class="st11"
   d="m 1513.24,1105.74 h -4.34 c -1.01,0 -1.83,-0.84 -1.83,-1.87 v -32.28 c 0,-1.03 0.82,-1.87 1.83,-1.87 h 4.34 c 1.01,0 1.83,0.84 1.83,1.87 v 32.28 c 0.01,1.03 -0.82,1.87 -1.83,1.87 z m -4.17,-2.04 h 4.01 v -31.94 h -4.01 z"
   id="path29" />&#10;		</g>&#10;		<g
   id="g34">&#10;			<path
   class="st19"
   d="m 1489.96,1211.37 c -4.61,0 -8.36,-3.83 -8.36,-8.55 0,-4.71 3.75,-8.55 8.36,-8.55 4.61,0 8.36,3.83 8.36,8.55 0,4.71 -3.75,8.55 -8.36,8.55 z m 0,-14.52 c -3.22,0 -5.84,2.68 -5.84,5.97 0,3.29 2.62,5.97 5.84,5.97 3.22,0 5.84,-2.68 5.84,-5.97 0,-3.29 -2.62,-5.97 -5.84,-5.97 z"
   id="path30" />&#10;			<g
   id="g33">&#10;				<rect
   x="1488.7"
   y="1153.8199"
   class="st19"
   width="2.52"
   height="34.700001"
   id="rect30" />&#10;				<path
   class="st19"
   d="m 1499.51,1154.92 h -19.23 l 9.62,-8.42 z m -13.15,-2.2 h 7.07 l -3.54,-3.09 z"
   id="path31" />&#10;				<polygon
   class="st19"
   points="1500.62,1165.2 1500.62,1169.45 1490.43,1173.1 1489.48,1171.06 1498.1,1167.97 1498.1,1165.2 "
   id="polygon31" />&#10;				<polygon
   class="st19"
   points="1481.25,1179.65 1490.32,1182.49 1489.48,1184.56 1478.74,1181.2 1478.74,1174.94 1481.25,1174.94 "
   id="polygon32" />&#10;				<path
   class="st19"
   d="m 1503.49,1166.47 h -8.06 v -6.69 h 8.06 z m -5.54,-2.2 h 3.02 v -2.28 h -3.02 z"
   id="path32" />&#10;				<path
   class="st19"
   d="m 1479.99,1176.71 c -2.41,0 -4.38,-1.72 -4.38,-3.83 0,-2.11 1.96,-3.83 4.38,-3.83 2.41,0 4.38,1.72 4.38,3.83 0,2.11 -1.96,3.83 -4.38,3.83 z m 0,-5.45 c -1.02,0 -1.86,0.73 -1.86,1.63 0,0.9 0.83,1.63 1.86,1.63 1.03,0 1.86,-0.73 1.86,-1.63 0,-0.9 -0.83,-1.63 -1.86,-1.63 z"
   id="path33" />&#10;			</g>&#10;		</g>&#10;	</g>&#10;	<text
   id="text36"
   x="372.8555"
   y="399.33917"
   style="font-size:53.3333px"><tspan
     x="372.8555"
     y="399.33917"
     class="st20 st21 st22"
     id="tspan35"
     style="font-size:53.3333px">USB cable 40cm</tspan></text>&#10;	<g
   id="g57"
   transform="rotate(180,869.79309,859.70137)">&#10;		<path
   class="st25"
   d="m 1327.34,844.68 v 175.51 h 333.15 V 844.68 Z m 43.31,113.35 c -9.81,0 -17.77,-7.95 -17.77,-17.77 0,-9.81 7.95,-17.77 17.77,-17.77 9.81,0 17.77,7.95 17.77,17.77 0,9.82 -7.96,17.77 -17.77,17.77 z m 244.45,0 c -9.81,0 -17.77,-7.95 -17.77,-17.77 0,-9.81 7.95,-17.77 17.77,-17.77 9.81,0 17.77,7.95 17.77,17.77 0,9.82 -7.95,17.77 -17.77,17.77 z"
   id="path36" />&#10;		<linearGradient
   id="SVGID_1_"
   gradientUnits="userSpaceOnUse"
   x1="1493.9069"
   y1="893.9906"
   x2="1493.8701"
   y2="560.80878">&#10;			<stop
   offset="0"
   style="stop-color:#1A4385"
   id="stop36" />&#10;			<stop
   offset="0.0627"
   style="stop-color:#2F548F"
   id="stop37" />&#10;			<stop
   offset="0.3733"
   style="stop-color:#93A5C0"
   id="stop38" />&#10;			<stop
   offset="0.5894"
   style="stop-color:#D2D7DF"
   id="stop39" />&#10;			<stop
   offset="0.6912"
   style="stop-color:#EBEBEB"
   id="stop40" />&#10;		</linearGradient>&#10;		<path
   class="st26"
   d="m 1612.19,890.12 h 39.41 c 4.91,0 8.88,-3.98 8.88,-8.88 v -98.66 c 0,-4.91 -3.98,-8.88 -8.88,-8.88 h -315.38 c -4.91,0 -8.88,3.98 -8.88,8.88 v 98.66 c 0,4.91 3.98,8.88 8.88,8.88 h 39.41 c 26.99,0 48.86,21.88 48.86,48.86 v 5.7 c 0,26.99 -21.88,48.86 -48.86,48.86 h -39.41 c -4.91,0 -8.88,3.98 -8.88,8.88 v 95.53 c 0,4.91 3.98,8.88 8.88,8.88 h 315.38 c 4.91,0 8.88,-3.98 8.88,-8.88 v -95.53 c 0,-4.91 -3.98,-8.88 -8.88,-8.88 h -39.41 c -26.99,0 -48.86,-21.88 -48.86,-48.86 v -5.7 c 0,-26.98 21.88,-48.86 48.86,-48.86 z"
   id="path40"
   style="fill:url(#SVGID_1_)" />&#10;		<g
   id="g55">&#10;			<g
   id="g42">&#10;				<g
   id="g41">&#10;					<path
   class="st2"
   d="m 1413.27,1043.19 c -0.16,0 -0.32,0.01 -0.49,0.04 -0.91,0.15 -1.67,0.61 -2.2,1.34 -0.53,0.73 -0.73,1.59 -0.59,2.49 0.08,0.52 0.29,1 0.62,1.42 0.3,0.39 0.65,0.71 1.04,0.95 1.95,1.24 3.74,2.29 5.3,3.13 0.89,0.48 1.76,0.91 2.57,1.28 l 0.42,0.19 -0.34,0.31 c -0.68,0.62 -1.37,1.29 -2.06,2 -1.26,1.3 -2.62,2.83 -4.04,4.56 -0.3,0.36 -0.53,0.77 -0.69,1.23 -0.18,0.51 -0.23,1.03 -0.15,1.55 0.14,0.9 0.61,1.65 1.34,2.18 0.73,0.53 1.59,0.73 2.49,0.59 h 0.01 c 0.47,-0.08 0.9,-0.25 1.26,-0.51 0.29,-0.21 0.57,-0.45 0.83,-0.73 l 0.05,-0.06 c 1.66,-1.98 3.09,-3.6 4.26,-4.8 1.15,-1.18 2.2,-2.11 3.12,-2.77 0.89,-0.63 1.75,-1.09 2.54,-1.35 0.83,-0.28 1.77,-0.51 2.78,-0.71 1.68,-0.21 4.24,-0.53 4.43,-0.54 0.9,-0.06 1.9,0.06 3.06,0.36 1.13,0.29 2.47,0.82 3.99,1.59 1.54,0.78 3.53,1.92 5.9,3.41 0.81,0.47 1.62,0.65 2.4,0.53 0.91,-0.15 1.66,-0.61 2.19,-1.34 0.53,-0.73 0.73,-1.59 0.59,-2.49 -0.08,-0.52 -0.29,-1 -0.63,-1.42 -0.3,-0.39 -0.65,-0.7 -1.06,-0.96 -1.98,-1.2 -3.76,-2.23 -5.29,-3.06 -0.88,-0.48 -1.74,-0.91 -2.56,-1.29 l -0.42,-0.19 0.34,-0.31 c 0.67,-0.62 1.37,-1.31 2.07,-2.03 1.24,-1.29 2.6,-2.83 4.03,-4.58 0.3,-0.36 0.53,-0.77 0.69,-1.23 0.18,-0.51 0.23,-1.03 0.15,-1.55 -0.14,-0.9 -0.61,-1.65 -1.34,-2.18 -0.73,-0.53 -1.59,-0.73 -2.48,-0.59 -0.8,0.13 -1.5,0.55 -2.16,1.3 -1.79,2.16 -3.32,3.89 -4.55,5.11 -1.2,1.2 -2.3,2.13 -3.27,2.76 -0.94,0.61 -1.86,1.04 -2.71,1.26 -0.93,0.25 -2.02,0.47 -3.26,0.67 l -0.73,0.12 c -1.15,0.18 -2.15,0.27 -3.05,0.28 -0.87,-0.01 -1.89,-0.14 -2.97,-0.45 -1.1,-0.31 -2.41,-0.85 -3.88,-1.61 -1.5,-0.78 -3.4,-1.89 -5.63,-3.3 l -0.08,-0.05 c -0.33,-0.17 -0.68,-0.32 -1.01,-0.42 -0.25,-0.09 -0.54,-0.13 -0.83,-0.13 z"
   id="path41" />&#10;				</g>&#10;			</g>&#10;			<g
   id="g45">&#10;				<g
   id="g43">&#10;					<path
   class="st2"
   d="m 1368.99,1050.35 c 0,-1.17 0.23,-2.21 0.69,-3.13 0.46,-0.91 1.1,-1.67 1.91,-2.28 0.81,-0.61 1.75,-1.07 2.81,-1.39 1.06,-0.32 2.21,-0.47 3.44,-0.47 1.2,0 2.34,0.16 3.42,0.47 1.08,0.32 2.01,0.78 2.81,1.39 0.8,0.61 1.43,1.37 1.89,2.28 0.46,0.91 0.69,1.96 0.69,3.13 v 10.45 h -5.59 v -9.2 c 0,-1.19 -0.28,-2.08 -0.83,-2.65 -0.56,-0.57 -1.35,-0.86 -2.4,-0.86 -2.18,0 -3.26,1.17 -3.26,3.52 v 9.2 h -5.59 v -10.46 z"
   id="path42" />&#10;				</g>&#10;				<g
   id="g44">&#10;					<path
   class="st2"
   d="m 1395.72,1054.44 c 0.05,0.27 0.17,0.54 0.36,0.79 0.2,0.26 0.47,0.5 0.83,0.73 0.36,0.23 0.82,0.41 1.37,0.54 0.56,0.14 1.23,0.2 2.01,0.2 0.6,0 1.17,-0.05 1.7,-0.15 0.53,-0.1 1,-0.21 1.39,-0.32 0.39,-0.11 0.72,-0.23 0.97,-0.34 0.25,-0.11 0.4,-0.19 0.45,-0.24 l 1.94,3.79 c -0.19,0.11 -0.49,0.27 -0.92,0.47 -0.43,0.2 -0.97,0.41 -1.61,0.61 -0.65,0.2 -1.41,0.38 -2.27,0.52 -0.87,0.15 -1.82,0.22 -2.87,0.22 -1.3,0 -2.51,-0.2 -3.65,-0.61 -1.13,-0.41 -2.12,-1 -2.97,-1.78 -0.85,-0.78 -1.51,-1.73 -2,-2.86 -0.49,-1.13 -0.73,-2.41 -0.73,-3.86 0,-1.35 0.24,-2.59 0.73,-3.72 0.49,-1.13 1.16,-2.08 2.01,-2.87 0.86,-0.79 1.86,-1.4 3.02,-1.84 1.16,-0.44 2.41,-0.66 3.75,-0.66 1.25,0 2.37,0.16 3.37,0.49 1,0.33 1.83,0.77 2.52,1.34 0.68,0.56 1.2,1.21 1.56,1.93 0.36,0.72 0.54,1.47 0.54,2.23 0,0.83 -0.15,1.58 -0.45,2.25 -0.3,0.66 -0.84,1.23 -1.61,1.69 -0.78,0.46 -1.83,0.82 -3.16,1.07 -1.33,0.25 -3.03,0.37 -5.09,0.37 h -1.19 z m -0.27,-3.52 c 1.55,0 2.75,-0.06 3.61,-0.17 0.86,-0.11 1.49,-0.26 1.91,-0.44 0.42,-0.18 0.67,-0.38 0.76,-0.61 0.09,-0.22 0.14,-0.45 0.14,-0.68 0,-0.47 -0.22,-0.88 -0.66,-1.23 -0.44,-0.35 -1.1,-0.52 -1.98,-0.52 -0.63,0 -1.17,0.11 -1.63,0.32 -0.46,0.21 -0.85,0.49 -1.16,0.83 -0.31,0.34 -0.55,0.73 -0.71,1.17 -0.17,0.44 -0.26,0.88 -0.28,1.33 z"
   id="path43" />&#10;				</g>&#10;			</g>&#10;			<g
   id="g54">&#10;				<g
   id="g46">&#10;					<path
   class="st2"
   d="m 1457.15,1049.72 c 0,-1.1 0.2,-2.07 0.59,-2.89 0.39,-0.82 0.93,-1.51 1.62,-2.08 0.69,-0.56 1.5,-0.98 2.43,-1.27 0.93,-0.28 1.95,-0.42 3.06,-0.42 1.35,0 2.56,0.22 3.61,0.68 1.06,0.45 1.91,1.08 2.57,1.89 0.65,-0.81 1.5,-1.44 2.53,-1.89 1.04,-0.45 2.23,-0.68 3.58,-0.68 1.08,0 2.09,0.14 3.02,0.42 0.93,0.28 1.74,0.7 2.43,1.27 0.69,0.56 1.23,1.26 1.62,2.08 0.39,0.82 0.59,1.78 0.59,2.89 v 11.04 h -5.44 v -9.49 c 0,-1.15 -0.24,-1.97 -0.71,-2.46 -0.47,-0.5 -1.14,-0.74 -1.99,-0.74 -0.88,0 -1.59,0.29 -2.14,0.88 -0.55,0.59 -0.83,1.52 -0.83,2.8 v 9.02 h -5.44 v -9.02 c 0,-1.28 -0.27,-2.22 -0.81,-2.8 -0.54,-0.59 -1.25,-0.88 -2.13,-0.88 -0.86,0 -1.53,0.25 -2.01,0.74 -0.48,0.5 -0.73,1.32 -0.73,2.46 v 9.49 h -5.44 v -11.04 z"
   id="path45" />&#10;				</g>&#10;				<g
   id="g47">&#10;					<path
   class="st2"
   d="m 1487.85,1052.15 c 0,-1.31 0.25,-2.51 0.74,-3.61 0.5,-1.1 1.18,-2.06 2.04,-2.87 0.87,-0.81 1.87,-1.45 3.02,-1.91 1.15,-0.46 2.39,-0.69 3.71,-0.69 1.31,0 2.54,0.23 3.7,0.69 1.16,0.46 2.17,1.1 3.04,1.91 0.87,0.81 1.55,1.77 2.04,2.87 0.5,1.1 0.74,2.31 0.74,3.61 0,1.31 -0.25,2.51 -0.74,3.61 -0.5,1.1 -1.18,2.06 -2.04,2.87 -0.87,0.81 -1.88,1.45 -3.04,1.91 -1.16,0.46 -2.39,0.69 -3.7,0.69 -1.33,0 -2.57,-0.23 -3.71,-0.69 -1.15,-0.46 -2.16,-1.1 -3.02,-1.91 -0.87,-0.81 -1.55,-1.77 -2.04,-2.87 -0.49,-1.1 -0.74,-2.3 -0.74,-3.61 z m 9.52,4.22 c 0.56,0 1.09,-0.11 1.57,-0.32 0.48,-0.21 0.91,-0.51 1.27,-0.88 0.36,-0.37 0.64,-0.82 0.83,-1.33 0.19,-0.52 0.29,-1.08 0.29,-1.69 0,-0.61 -0.1,-1.17 -0.29,-1.69 -0.19,-0.52 -0.47,-0.96 -0.83,-1.33 -0.36,-0.37 -0.78,-0.66 -1.27,-0.88 -0.48,-0.21 -1.01,-0.32 -1.57,-0.32 -0.59,0 -1.11,0.11 -1.59,0.32 -0.47,0.21 -0.89,0.51 -1.25,0.88 -0.36,0.37 -0.64,0.82 -0.83,1.33 -0.19,0.52 -0.29,1.08 -0.29,1.69 0,0.61 0.1,1.17 0.29,1.69 0.19,0.52 0.47,0.96 0.83,1.33 0.36,0.37 0.78,0.66 1.25,0.88 0.48,0.21 1.01,0.32 1.59,0.32 z"
   id="path46" />&#10;				</g>&#10;				<g
   id="g48">&#10;					<path
   class="st2"
   d="m 1510.61,1055.49 c 0.18,0.14 0.48,0.3 0.9,0.49 0.42,0.19 0.91,0.37 1.49,0.54 0.57,0.17 1.23,0.32 1.96,0.44 0.73,0.12 1.5,0.19 2.31,0.19 0.92,0 1.62,-0.08 2.09,-0.25 0.47,-0.17 0.71,-0.47 0.71,-0.89 0,-0.45 -0.2,-0.76 -0.59,-0.93 -0.39,-0.17 -1.01,-0.31 -1.84,-0.42 l -1.76,-0.2 c -0.88,-0.11 -1.72,-0.28 -2.53,-0.49 -0.81,-0.21 -1.53,-0.53 -2.14,-0.95 -0.62,-0.42 -1.11,-0.95 -1.47,-1.6 -0.36,-0.65 -0.54,-1.47 -0.54,-2.47 0,-0.83 0.15,-1.6 0.46,-2.31 0.3,-0.71 0.78,-1.33 1.44,-1.86 0.65,-0.53 1.49,-0.95 2.5,-1.25 1.01,-0.3 2.22,-0.46 3.61,-0.46 1.42,0 2.64,0.09 3.66,0.27 1.02,0.18 1.91,0.46 2.65,0.84 0.43,0.22 0.77,0.5 1.03,0.83 0.26,0.33 0.39,0.73 0.39,1.2 0,0.36 -0.07,0.68 -0.22,0.96 -0.15,0.28 -0.32,0.52 -0.51,0.73 -0.19,0.2 -0.37,0.36 -0.54,0.47 -0.17,0.11 -0.28,0.18 -0.32,0.2 -0.07,-0.07 -0.25,-0.19 -0.56,-0.37 -0.3,-0.18 -0.71,-0.35 -1.22,-0.52 -0.51,-0.17 -1.11,-0.32 -1.82,-0.46 -0.71,-0.13 -1.51,-0.2 -2.41,-0.2 -1.01,0 -1.72,0.12 -2.11,0.35 -0.39,0.24 -0.59,0.55 -0.59,0.93 0,0.38 0.18,0.65 0.54,0.81 0.36,0.16 0.9,0.29 1.62,0.41 l 3.07,0.44 c 0.76,0.11 1.5,0.28 2.21,0.49 0.71,0.21 1.34,0.52 1.89,0.93 0.55,0.41 0.99,0.92 1.32,1.55 0.33,0.63 0.49,1.4 0.49,2.3 0,1.89 -0.72,3.37 -2.16,4.42 -1.44,1.06 -3.43,1.59 -5.98,1.59 -1.33,0 -2.51,-0.09 -3.53,-0.27 -1.02,-0.18 -1.91,-0.39 -2.65,-0.62 -0.74,-0.24 -1.35,-0.48 -1.81,-0.74 -0.46,-0.26 -0.78,-0.46 -0.96,-0.59 z"
   id="path47" />&#10;				</g>&#10;				<g
   id="g49">&#10;					<path
   class="st2"
   d="m 1528.34,1067.52 v -14.59 c 0,-1.44 0.15,-2.69 0.44,-3.75 0.29,-1.06 0.71,-1.95 1.25,-2.67 0.86,-1.13 1.95,-1.98 3.28,-2.57 1.33,-0.58 2.8,-0.88 4.42,-0.88 1.33,0 2.56,0.22 3.7,0.66 1.14,0.44 2.12,1.05 2.95,1.84 0.83,0.79 1.49,1.74 1.96,2.87 0.47,1.13 0.71,2.36 0.71,3.71 0,1.37 -0.22,2.61 -0.66,3.71 -0.44,1.1 -1.04,2.05 -1.79,2.84 -0.75,0.79 -1.64,1.4 -2.65,1.82 -1.01,0.43 -2.09,0.64 -3.24,0.64 -1.26,0 -2.3,-0.2 -3.12,-0.59 -0.82,-0.39 -1.44,-0.79 -1.84,-1.2 v 8.14 h -5.41 z m 9.26,-11.25 c 1.13,0 2.05,-0.39 2.79,-1.16 0.73,-0.78 1.1,-1.77 1.1,-2.99 0,-1.22 -0.37,-2.2 -1.1,-2.94 -0.73,-0.74 -1.66,-1.11 -2.79,-1.11 -1.13,0 -2.05,0.36 -2.79,1.08 -0.73,0.72 -1.1,1.71 -1.1,2.97 0,0.59 0.1,1.13 0.29,1.64 0.19,0.51 0.46,0.95 0.81,1.32 0.35,0.37 0.76,0.66 1.23,0.88 0.48,0.2 0.99,0.31 1.56,0.31 z"
   id="path48" />&#10;				</g>&#10;				<g
   id="g50">&#10;					<path
   class="st2"
   d="m 1550.09,1038.27 c 0,-0.88 0.26,-1.5 0.78,-1.86 0.52,-0.36 1.2,-0.54 2.06,-0.54 0.61,0 1.15,0.07 1.64,0.22 0.48,0.15 0.79,0.24 0.93,0.29 v 8.17 c 0.43,-0.38 1.01,-0.73 1.76,-1.05 0.74,-0.32 1.7,-0.47 2.87,-0.47 1.01,0 1.95,0.14 2.8,0.42 0.85,0.28 1.6,0.72 2.25,1.32 0.64,0.6 1.14,1.35 1.5,2.26 0.36,0.91 0.54,1.99 0.54,3.23 v 10.5 h -5.44 v -9.39 c 0,-1.15 -0.25,-1.98 -0.76,-2.5 -0.51,-0.52 -1.27,-0.78 -2.28,-0.78 -1.01,0 -1.8,0.3 -2.36,0.91 -0.56,0.61 -0.84,1.55 -0.84,2.84 v 8.92 h -5.44 v -22.49 z"
   id="path49" />&#10;				</g>&#10;				<g
   id="g51">&#10;					<path
   class="st2"
   d="m 1576.03,1054.41 c 0.04,0.27 0.16,0.53 0.35,0.79 0.19,0.26 0.46,0.5 0.81,0.73 0.35,0.23 0.79,0.41 1.33,0.54 0.54,0.14 1.19,0.2 1.96,0.2 0.59,0 1.14,-0.05 1.65,-0.15 0.51,-0.1 0.97,-0.21 1.35,-0.32 0.38,-0.11 0.7,-0.22 0.95,-0.34 0.25,-0.11 0.39,-0.19 0.44,-0.24 l 1.89,3.78 c -0.18,0.11 -0.48,0.27 -0.89,0.47 -0.42,0.2 -0.94,0.41 -1.57,0.61 -0.63,0.2 -1.37,0.38 -2.21,0.52 -0.84,0.15 -1.77,0.22 -2.79,0.22 -1.26,0 -2.44,-0.2 -3.55,-0.61 -1.1,-0.41 -2.07,-1 -2.89,-1.77 -0.82,-0.78 -1.47,-1.73 -1.94,-2.85 -0.47,-1.13 -0.71,-2.41 -0.71,-3.85 0,-1.35 0.24,-2.59 0.71,-3.71 0.47,-1.13 1.13,-2.08 1.96,-2.87 0.83,-0.79 1.81,-1.4 2.94,-1.84 1.13,-0.44 2.34,-0.66 3.65,-0.66 1.22,0 2.31,0.16 3.28,0.49 0.97,0.33 1.78,0.77 2.45,1.33 0.66,0.56 1.17,1.2 1.52,1.92 0.35,0.72 0.52,1.46 0.52,2.23 0,0.83 -0.15,1.58 -0.44,2.25 -0.29,0.66 -0.82,1.23 -1.57,1.69 -0.75,0.46 -1.78,0.82 -3.07,1.06 -1.3,0.25 -2.94,0.37 -4.95,0.37 h -1.18 z m -0.27,-3.51 c 1.51,0 2.68,-0.06 3.51,-0.17 0.83,-0.11 1.45,-0.26 1.86,-0.44 0.41,-0.18 0.65,-0.38 0.74,-0.61 0.09,-0.22 0.13,-0.45 0.13,-0.68 0,-0.47 -0.21,-0.88 -0.64,-1.23 -0.43,-0.35 -1.07,-0.52 -1.93,-0.52 -0.61,0 -1.14,0.11 -1.59,0.32 -0.45,0.21 -0.83,0.49 -1.13,0.83 -0.3,0.34 -0.53,0.73 -0.69,1.16 -0.15,0.45 -0.24,0.89 -0.26,1.34 z"
   id="path50" />&#10;				</g>&#10;				<g
   id="g52">&#10;					<path
   class="st2"
   d="m 1589.87,1049.95 c 0,-1.1 0.19,-2.08 0.56,-2.94 0.37,-0.86 0.88,-1.58 1.54,-2.16 0.65,-0.59 1.44,-1.03 2.36,-1.33 0.92,-0.3 1.94,-0.46 3.04,-0.46 1.35,0 2.4,0.15 3.16,0.44 0.75,0.29 1.3,0.61 1.64,0.95 0.2,0.23 0.36,0.46 0.47,0.71 0.11,0.25 0.17,0.54 0.17,0.88 0,0.34 -0.05,0.65 -0.15,0.95 -0.1,0.29 -0.23,0.55 -0.37,0.78 -0.15,0.23 -0.29,0.42 -0.42,0.57 -0.13,0.16 -0.24,0.27 -0.3,0.34 -0.38,-0.18 -0.84,-0.35 -1.38,-0.51 -0.54,-0.16 -1.14,-0.24 -1.79,-0.24 -0.86,0 -1.58,0.25 -2.18,0.74 -0.6,0.5 -0.9,1.32 -0.9,2.47 v 9.62 h -5.44 v -10.81 z"
   id="path51" />&#10;				</g>&#10;				<g
   id="g53">&#10;					<path
   class="st2"
   d="m 1609.43,1054.41 c 0.05,0.27 0.16,0.53 0.35,0.79 0.19,0.26 0.46,0.5 0.81,0.73 0.35,0.23 0.79,0.41 1.33,0.54 0.54,0.14 1.19,0.2 1.96,0.2 0.59,0 1.14,-0.05 1.65,-0.15 0.51,-0.1 0.97,-0.21 1.35,-0.32 0.38,-0.11 0.7,-0.22 0.95,-0.34 0.25,-0.11 0.39,-0.19 0.44,-0.24 l 1.89,3.78 c -0.18,0.11 -0.48,0.27 -0.89,0.47 -0.42,0.2 -0.94,0.41 -1.57,0.61 -0.63,0.2 -1.37,0.38 -2.21,0.52 -0.84,0.15 -1.77,0.22 -2.79,0.22 -1.26,0 -2.44,-0.2 -3.55,-0.61 -1.1,-0.41 -2.07,-1 -2.89,-1.77 -0.82,-0.78 -1.47,-1.73 -1.94,-2.85 -0.47,-1.13 -0.71,-2.41 -0.71,-3.85 0,-1.35 0.24,-2.59 0.71,-3.71 0.47,-1.13 1.13,-2.08 1.96,-2.87 0.83,-0.79 1.81,-1.4 2.94,-1.84 1.13,-0.44 2.34,-0.66 3.65,-0.66 1.22,0 2.31,0.16 3.28,0.49 0.97,0.33 1.78,0.77 2.45,1.33 0.66,0.56 1.17,1.2 1.52,1.92 0.35,0.72 0.52,1.46 0.52,2.23 0,0.83 -0.15,1.58 -0.44,2.25 -0.29,0.66 -0.82,1.23 -1.57,1.69 -0.75,0.46 -1.78,0.82 -3.07,1.06 -1.3,0.25 -2.94,0.37 -4.95,0.37 h -1.18 z m -0.27,-3.51 c 1.51,0 2.68,-0.06 3.51,-0.17 0.83,-0.11 1.45,-0.26 1.86,-0.44 0.41,-0.18 0.65,-0.38 0.74,-0.61 0.09,-0.22 0.13,-0.45 0.13,-0.68 0,-0.47 -0.21,-0.88 -0.64,-1.23 -0.43,-0.35 -1.07,-0.52 -1.93,-0.52 -0.61,0 -1.14,0.11 -1.59,0.32 -0.45,0.21 -0.83,0.49 -1.13,0.83 -0.3,0.34 -0.53,0.73 -0.69,1.16 -0.15,0.45 -0.24,0.89 -0.26,1.34 z"
   id="path52" />&#10;				</g>&#10;			</g>&#10;		</g>&#10;		<g
   id="g56">&#10;			<path
   class="st2"
   d="m 1518.48,920.4 h -47.33 c -4.45,0 -8.59,-2.39 -10.81,-6.24 l -23.67,-40.99 c -2.22,-3.85 -2.22,-8.63 0,-12.48 l 23.67,-40.99 c 2.22,-3.85 6.36,-6.24 10.81,-6.24 h 47.33 c 4.45,0 8.59,2.39 10.81,6.24 l 23.67,40.99 c 2.22,3.85 2.22,8.63 0,12.48 l -23.67,40.99 c -2.22,3.85 -6.37,6.24 -10.81,6.24 z m -47.33,-103.82 c -3.33,0 -6.43,1.79 -8.09,4.67 l -23.67,40.99 c -1.67,2.88 -1.67,6.46 0,9.35 l 23.67,40.99 c 1.66,2.88 4.77,4.67 8.09,4.67 h 47.33 c 3.33,0 6.43,-1.79 8.09,-4.67 l 23.67,-40.99 c 1.67,-2.88 1.67,-6.46 0,-9.35 l -23.67,-40.99 c -1.66,-2.88 -4.77,-4.67 -8.09,-4.67 z"
   id="path55" />&#10;			<text
   transform="translate(1458.3165,885.5482)"
   class="st2 st27 st28"
   id="text55">XN</text>&#10;		</g>&#10;	</g>&#10;	<text
   id="text58"
   x="448.20593"
   y="775.33893"
   style="font-size:53.3333px"><tspan
     x="448.20593"
     y="775.33893"
     class="st20 st21 st22"
     id="tspan57"
     style="font-size:53.3333px">XN-125 Controller</tspan></text>&#10;	<g
   id="g70"
   transform="rotate(180,869.79309,859.70137)">&#10;		<g
   id="g64">&#10;			<rect
   x="406.76001"
   y="1421.89"
   class="st14"
   width="90.050003"
   height="107.69"
   id="rect58" />&#10;			<rect
   x="406.76001"
   y="1421.89"
   class="st6"
   width="90.050003"
   height="9.4499998"
   id="rect59" />&#10;			<rect
   x="406.76001"
   y="1513.04"
   class="st9"
   width="90.050003"
   height="16.540001"
   id="rect60" />&#10;			<path
   class="st11"
   d="m 406,1532.41 v -113.36 h 93.31 v 113.36 z m 0.76,-107.69 v 102.02 h 91.81 v -102.02 z"
   id="path60" />&#10;			<path
   class="st15"
   d="m 687.19,1512.13 v -82.35 c 0,-3.73 -3.02,-6.74 -6.74,-6.74 H 495.32 v 122.82 h 158.15 c 18.63,-0.01 33.72,-15.11 33.72,-33.73 z"
   id="path61" />&#10;			<path
   class="st16"
   d="m 687.19,1423.04 h -5.31 c 0,-7.56 -6.13,-13.69 -13.69,-13.69 H 495.32 v 13.69 z"
   id="path62" />&#10;			<path
   class="st17"
   d="m 687.19,1520.41 v 0 H 495.32 v 25.44 h 166.43 c 14.06,0 25.44,-11.39 25.44,-25.44 z"
   id="path63" />&#10;			<path
   class="st11"
   d="m 493.05,1548.3 v -144.52 h 162.69 c 18.63,0 33.72,15.1 33.72,33.72 v 77.07 c 0,18.63 -15.1,33.72 -33.72,33.72 H 493.05 Z m 4.55,-139.06 v 133.61 h 153.6 c 18.63,0 33.72,-15.1 33.72,-33.72 v -66.16 c 0,-18.63 -15.1,-33.72 -33.72,-33.72 H 497.6 Z"
   id="path64" />&#10;		</g>&#10;		<g
   id="g69">&#10;			<path
   class="st19"
   d="m 634.04,1488.77 c -7.71,0 -13.98,-6.14 -13.98,-13.68 0,-7.54 6.27,-13.68 13.98,-13.68 7.71,0 13.98,6.14 13.98,13.68 0,7.54 -6.27,13.68 -13.98,13.68 z m 0,-4.13 c 5.39,0 9.77,-4.29 9.77,-9.56 0,-5.27 -4.38,-9.56 -9.77,-9.56 -5.39,0 -9.77,4.29 -9.77,9.56 -0.01,5.28 4.38,9.56 9.77,9.56 z"
   id="path65" />&#10;			<g
   id="g68">&#10;				<rect
   x="553.84998"
   y="1473.02"
   class="st19"
   width="56.779999"
   height="4.1199999"
   id="rect65" />&#10;				<path
   class="st19"
   d="m 541.88,1474.99 13.77,-15.73 v 31.47 z m 5.1,0 5.06,5.79 v -11.57 z"
   id="path66" />&#10;				<polygon
   class="st19"
   points="572.47,1492.53 579.42,1492.53 585.39,1475.86 582.05,1474.3 577,1488.41 572.47,1488.41 "
   id="polygon66" />&#10;				<polygon
   class="st19"
   points="596.11,1460.84 600.76,1475.68 604.16,1474.29 598.66,1456.72 588.41,1456.72 588.41,1460.84 "
   id="polygon67" />&#10;				<path
   class="st19"
   d="m 563.61,1497.23 v -13.19 h 10.94 v 13.19 z m 3.6,-9.07 v 4.94 h 3.73 v -4.94 z"
   id="path67" />&#10;				<path
   class="st19"
   d="m 585.04,1465.94 c -3.46,0 -6.27,-3.21 -6.27,-7.16 0,-3.95 2.81,-7.16 6.27,-7.16 3.46,0 6.27,3.21 6.27,7.16 0,3.95 -2.81,7.16 -6.27,7.16 z m 0,-4.12 c 1.47,0 2.66,-1.36 2.66,-3.04 0,-1.68 -1.19,-3.04 -2.66,-3.04 -1.47,0 -2.66,1.36 -2.66,3.04 0,1.68 1.19,3.04 2.66,3.04 z"
   id="path68" />&#10;			</g>&#10;		</g>&#10;	</g>&#10;	&#10;		<linearGradient
   id="SVGID_2_"
   gradientUnits="userSpaceOnUse"
   x1="2061.8132"
   y1="2043.7144"
   x2="2447.0647"
   y2="1821.2894"
   gradientTransform="matrix(0 -1 1 0 533.903 2549.8027)">&#10;		<stop
   offset="0"
   style="stop-color:#3C3C3B"
   id="stop70" />&#10;		<stop
   offset="0.172"
   style="stop-color:#3F3F3E"
   id="stop71" />&#10;		<stop
   offset="0.3146"
   style="stop-color:#4A4A49"
   id="stop72" />&#10;		<stop
   offset="0.4464"
   style="stop-color:#5B5B5A"
   id="stop73" />&#10;		<stop
   offset="0.5541"
   style="stop-color:#6F6F6E"
   id="stop74" />&#10;		<stop
   offset="0.5657"
   style="stop-color:#6D6D6C"
   id="stop75" />&#10;		<stop
   offset="0.6724"
   style="stop-color:#5E5E5D"
   id="stop76" />&#10;		<stop
   offset="0.7997"
   style="stop-color:#565655"
   id="stop77" />&#10;		<stop
   offset="1"
   style="stop-color:#535352"
   id="stop78" />&#10;	</linearGradient>&#10;	&#10;	&#10;		<radialGradient
   id="SVGID_3_"
   cx="2254.439"
   cy="1932.502"
   r="170.6508"
   gradientTransform="matrix(0 -1 1 0 533.903 2549.8027)"
   gradientUnits="userSpaceOnUse">&#10;		<stop
   offset="0"
   style="stop-color:#000000"
   id="stop79" />&#10;		<stop
   offset="0.4388"
   style="stop-color:#020202"
   id="stop80" />&#10;		<stop
   offset="0.5969"
   style="stop-color:#090909"
   id="stop81" />&#10;		<stop
   offset="0.7096"
   style="stop-color:#141414"
   id="stop82" />&#10;		<stop
   offset="0.8007"
   style="stop-color:#252525"
   id="stop83" />&#10;		<stop
   offset="0.8787"
   style="stop-color:#3B3B3A"
   id="stop84" />&#10;		<stop
   offset="0.9466"
   style="stop-color:#565554"
   id="stop85" />&#10;		<stop
   offset="1"
   style="stop-color:#71706F"
   id="stop86" />&#10;	</radialGradient>&#10;	&#10;	&#10;	&#10;		&#10;	&#10;	&#10;	&#10;	&#10;	&#10;	&#10;		&#10;	&#10;		&#10;	&#10;	&#10;	&#10;	&#10;	&#10;	&#10;	<text
   class="st20 st43 st24"
   id="text109"
   x="1090.1667"
   y="404.37814"
   style="font-size:53.3333px">USB to PC</text>&#10;<g
   id="g192"
   transform="translate(-696.6085,-526.85573)">&#10;		<g
   id="g191">&#10;			&#10;				<linearGradient
   id="linearGradient2"
   gradientUnits="userSpaceOnUse"
   x1="3399.218"
   y1="-30.2502"
   x2="3399.218"
   y2="-134.2883"
   gradientTransform="translate(-1592.4994,1842.63)">&#10;				<stop
   offset="0"
   style="stop-color:#FFFFFF"
   id="stop1" />&#10;				<stop
   offset="1"
   style="stop-color:#D8D8D8"
   id="stop2" />&#10;			</linearGradient>&#10;			<path
   class="st57"
   d="m 1872.7,1812.38 h -53.37 c -43.41,0 -78.6,-35.19 -78.6,-78.6 v -25.44 h 131.97 z"
   id="path164"
   style="fill:url(#SVGID_19_);stroke:#1d1e1c;stroke-linecap:round;stroke-linejoin:round;stroke-miterlimit:10" />&#10;			&#10;				<linearGradient
   id="linearGradient4"
   gradientUnits="userSpaceOnUse"
   x1="3652.8035"
   y1="-235.2598"
   x2="3965.1455"
   y2="-235.2598"
   gradientTransform="translate(-1592.4994,1842.63)">&#10;				<stop
   offset="0"
   style="stop-color:#FFFFFF"
   id="stop3" />&#10;				<stop
   offset="1"
   style="stop-color:#D8D8D8"
   id="stop4" />&#10;			</linearGradient>&#10;			<path
   class="st58"
   d="M 2294.04,1449.46 H 2060.3 v 315.83 h 312.34 v -237.23 c 0.01,-43.41 -35.18,-78.6 -78.6,-78.6 z"
   id="path166"
   style="fill:url(#SVGID_20_);stroke:#1d1e1c;stroke-linecap:round;stroke-linejoin:round;stroke-miterlimit:10" />&#10;			&#10;				<linearGradient
   id="linearGradient13"
   gradientUnits="userSpaceOnUse"
   x1="1945.2538"
   y1="-370.89569"
   x2="2280.9888"
   y2="-706.63068"
   gradientTransform="translate(-83.835,2197.0847)">&#10;				<stop
   offset="0"
   style="stop-color:#1A4385"
   id="stop5" />&#10;				<stop
   offset="0.2286"
   style="stop-color:#1D4586"
   id="stop6" />&#10;				<stop
   offset="0.3776"
   style="stop-color:#254C8A"
   id="stop7" />&#10;				<stop
   offset="0.5041"
   style="stop-color:#345891"
   id="stop8" />&#10;				<stop
   offset="0.6178"
   style="stop-color:#49689A"
   id="stop9" />&#10;				<stop
   offset="0.7231"
   style="stop-color:#657EA6"
   id="stop10" />&#10;				<stop
   offset="0.8221"
   style="stop-color:#8698B5"
   id="stop11" />&#10;				<stop
   offset="0.9144"
   style="stop-color:#ADB7C6"
   id="stop12" />&#10;				<stop
   offset="1"
   style="stop-color:#D9D9D9"
   id="stop13" />&#10;			</linearGradient>&#10;			<path
   class="st59"
   d="m 1740.73,1700.08 v -237.52 c 0,-7.24 5.87,-13.1 13.1,-13.1 h 396.89 c 7.24,0 13.1,5.87 13.1,13.1 v 276.53 c 0,7.24 5.87,13.1 13.1,13.1 h 182.6 c 7.24,0 13.1,5.87 13.1,13.1 v 33.97 c 0,7.24 -5.87,13.1 -13.1,13.1 h -496.3 c -7.24,0 -13.1,-5.87 -13.1,-13.1 v -33.68 c 0,-28.95 -23.47,-52.42 -52.42,-52.42 h -43.88 c -7.22,0.02 -13.09,-5.85 -13.09,-13.08 z"
   id="path175"
   style="fill:url(#SVGID_21_);stroke:#1d1e1c;stroke-linecap:round;stroke-linejoin:round;stroke-miterlimit:10" />&#10;			<g
   id="g190">&#10;				<g
   id="g177">&#10;					<g
   id="g176">&#10;						<path
   class="st38"
   d="m 2110.26,1772.09 c -0.2,0 -0.4,0.02 -0.6,0.05 -1.11,0.18 -2.04,0.74 -2.68,1.64 -0.65,0.89 -0.89,1.94 -0.72,3.04 0.1,0.64 0.36,1.22 0.76,1.74 0.37,0.47 0.79,0.86 1.27,1.16 2.39,1.51 4.56,2.8 6.47,3.82 1.09,0.58 2.14,1.11 3.14,1.57 l 0.52,0.23 -0.42,0.38 c -0.83,0.76 -1.67,1.58 -2.51,2.45 -1.54,1.58 -3.2,3.46 -4.93,5.57 -0.36,0.44 -0.65,0.94 -0.85,1.5 -0.22,0.62 -0.28,1.26 -0.18,1.89 0.18,1.1 0.74,2.02 1.63,2.66 0.89,0.64 1.94,0.89 3.03,0.72 h 0.01 c 0.58,-0.09 1.09,-0.3 1.53,-0.62 0.35,-0.25 0.69,-0.55 1.02,-0.89 l 0.06,-0.07 c 2.03,-2.42 3.78,-4.39 5.2,-5.86 1.4,-1.44 2.68,-2.58 3.81,-3.38 1.09,-0.77 2.14,-1.33 3.1,-1.65 1.02,-0.34 2.16,-0.63 3.39,-0.87 2.06,-0.26 5.17,-0.64 5.41,-0.66 1.1,-0.07 2.32,0.08 3.74,0.44 1.38,0.35 3.02,1 4.87,1.94 1.88,0.95 4.31,2.35 7.21,4.16 0.99,0.58 1.98,0.8 2.93,0.65 1.11,-0.18 2.03,-0.74 2.67,-1.64 0.65,-0.89 0.89,-1.95 0.72,-3.04 -0.1,-0.63 -0.36,-1.22 -0.76,-1.74 -0.37,-0.47 -0.79,-0.86 -1.29,-1.17 -2.42,-1.46 -4.59,-2.72 -6.46,-3.74 -1.07,-0.58 -2.12,-1.11 -3.13,-1.57 l -0.51,-0.23 0.41,-0.38 c 0.82,-0.76 1.67,-1.59 2.52,-2.48 1.51,-1.58 3.17,-3.46 4.92,-5.59 0.36,-0.43 0.65,-0.94 0.85,-1.5 0.22,-0.62 0.28,-1.25 0.18,-1.89 -0.18,-1.09 -0.74,-2.01 -1.64,-2.66 -0.89,-0.64 -1.94,-0.89 -3.03,-0.72 -0.97,0.16 -1.83,0.67 -2.63,1.58 -2.19,2.64 -4.06,4.74 -5.55,6.24 -1.46,1.47 -2.8,2.6 -3.99,3.36 -1.15,0.75 -2.27,1.26 -3.31,1.54 -1.13,0.3 -2.47,0.57 -3.98,0.82 l -0.89,0.14 c -1.4,0.22 -2.62,0.33 -3.72,0.34 -1.06,-0.01 -2.31,-0.18 -3.63,-0.55 -1.35,-0.38 -2.94,-1.04 -4.73,-1.96 -1.83,-0.95 -4.15,-2.3 -6.88,-4.03 l -0.1,-0.06 c -0.4,-0.21 -0.82,-0.39 -1.23,-0.52 -0.32,-0.11 -0.66,-0.16 -1.02,-0.16 z"
   id="path176"
   style="fill:#ffffff" />&#10;					</g>&#10;				</g>&#10;				<g
   id="g180">&#10;					<g
   id="g178">&#10;						<path
   class="st38"
   d="m 2056.2,1780.82 c 0,-1.43 0.28,-2.7 0.85,-3.82 0.56,-1.11 1.34,-2.04 2.33,-2.79 0.99,-0.74 2.13,-1.31 3.43,-1.69 1.3,-0.38 2.7,-0.58 4.2,-0.58 1.47,0 2.86,0.19 4.18,0.58 1.31,0.39 2.46,0.95 3.43,1.69 0.98,0.74 1.74,1.67 2.31,2.79 0.56,1.11 0.85,2.39 0.85,3.82 v 12.76 h -6.83 v -11.23 c 0,-1.46 -0.34,-2.54 -1.02,-3.24 -0.68,-0.7 -1.65,-1.05 -2.93,-1.05 -2.66,0 -3.99,1.43 -3.99,4.29 v 11.23 h -6.83 v -12.76 z"
   id="path177"
   style="fill:#ffffff" />&#10;					</g>&#10;					<g
   id="g179">&#10;						<path
   class="st38"
   d="m 2088.84,1785.82 c 0.06,0.33 0.2,0.65 0.45,0.97 0.24,0.32 0.58,0.61 1.02,0.89 0.44,0.28 1,0.5 1.67,0.66 0.68,0.17 1.5,0.25 2.46,0.25 0.73,0 1.43,-0.06 2.08,-0.19 0.65,-0.12 1.21,-0.25 1.7,-0.39 0.48,-0.14 0.88,-0.28 1.19,-0.41 0.31,-0.14 0.49,-0.23 0.55,-0.29 l 2.37,4.62 c -0.23,0.14 -0.6,0.33 -1.12,0.58 -0.52,0.25 -1.18,0.49 -1.97,0.74 -0.79,0.25 -1.72,0.46 -2.78,0.64 -1.06,0.18 -2.23,0.27 -3.5,0.27 -1.58,0 -3.07,-0.25 -4.45,-0.74 -1.38,-0.5 -2.59,-1.22 -3.62,-2.17 -1.03,-0.95 -1.84,-2.11 -2.44,-3.49 -0.59,-1.38 -0.89,-2.94 -0.89,-4.71 0,-1.65 0.3,-3.16 0.89,-4.54 0.59,-1.38 1.41,-2.55 2.46,-3.51 1.05,-0.96 2.27,-1.71 3.69,-2.25 1.41,-0.54 2.94,-0.81 4.58,-0.81 1.53,0 2.9,0.2 4.11,0.6 1.21,0.4 2.24,0.94 3.07,1.63 0.83,0.69 1.47,1.47 1.91,2.35 0.44,0.88 0.66,1.79 0.66,2.72 0,1.02 -0.18,1.93 -0.55,2.75 -0.37,0.81 -1.02,1.5 -1.97,2.06 -0.95,0.56 -2.23,1 -3.86,1.3 -1.63,0.3 -3.7,0.45 -6.21,0.45 h -1.5 z m -0.34,-4.29 c 1.89,0 3.36,-0.07 4.41,-0.21 1.05,-0.14 1.82,-0.32 2.33,-0.54 0.51,-0.22 0.82,-0.47 0.93,-0.74 0.11,-0.27 0.17,-0.55 0.17,-0.83 0,-0.58 -0.27,-1.08 -0.81,-1.51 -0.54,-0.43 -1.34,-0.64 -2.42,-0.64 -0.76,0 -1.43,0.13 -1.99,0.39 -0.57,0.26 -1.04,0.6 -1.42,1.01 -0.38,0.41 -0.67,0.89 -0.87,1.42 -0.19,0.55 -0.3,1.1 -0.33,1.65 z"
   id="path178"
   style="fill:#ffffff" />&#10;					</g>&#10;				</g>&#10;				<g
   id="g189">&#10;					<g
   id="g181">&#10;						<path
   class="st38"
   d="m 2163.83,1780.06 c 0,-1.35 0.24,-2.52 0.72,-3.53 0.48,-1 1.14,-1.85 1.98,-2.54 0.84,-0.69 1.83,-1.2 2.97,-1.55 1.14,-0.34 2.38,-0.52 3.73,-0.52 1.65,0 3.12,0.27 4.41,0.82 1.29,0.55 2.34,1.32 3.13,2.31 0.8,-0.99 1.83,-1.76 3.09,-2.31 1.26,-0.55 2.72,-0.82 4.37,-0.82 1.32,0 2.55,0.17 3.69,0.52 1.14,0.34 2.13,0.86 2.97,1.55 0.84,0.69 1.5,1.53 1.98,2.54 0.48,1 0.72,2.18 0.72,3.53 v 13.48 h -6.64 v -11.59 c 0,-1.4 -0.29,-2.4 -0.87,-3.01 -0.58,-0.61 -1.39,-0.91 -2.43,-0.91 -1.07,0 -1.94,0.36 -2.62,1.07 -0.67,0.71 -1.01,1.86 -1.01,3.42 v 11.01 h -6.64 v -11.01 c 0,-1.57 -0.33,-2.71 -0.99,-3.42 -0.66,-0.71 -1.53,-1.07 -2.6,-1.07 -1.04,0 -1.86,0.3 -2.45,0.91 -0.59,0.6 -0.89,1.61 -0.89,3.01 v 11.59 h -6.64 v -13.48 z"
   id="path180"
   style="fill:#ffffff" />&#10;					</g>&#10;					<g
   id="g182">&#10;						<path
   class="st38"
   d="m 2201.31,1783.03 c 0,-1.59 0.3,-3.06 0.91,-4.41 0.6,-1.35 1.44,-2.51 2.49,-3.5 1.06,-0.99 2.29,-1.77 3.69,-2.33 1.4,-0.56 2.91,-0.84 4.53,-0.84 1.59,0 3.1,0.28 4.51,0.84 1.42,0.56 2.65,1.34 3.71,2.33 1.06,0.99 1.89,2.16 2.49,3.5 0.6,1.35 0.91,2.82 0.91,4.41 0,1.59 -0.3,3.06 -0.91,4.41 -0.6,1.35 -1.44,2.52 -2.49,3.5 -1.06,0.99 -2.29,1.77 -3.71,2.33 -1.42,0.56 -2.92,0.85 -4.51,0.85 -1.62,0 -3.13,-0.28 -4.53,-0.85 -1.4,-0.56 -2.63,-1.34 -3.69,-2.33 -1.06,-0.99 -1.89,-2.16 -2.49,-3.5 -0.61,-1.35 -0.91,-2.82 -0.91,-4.41 z m 11.62,5.15 c 0.69,0 1.33,-0.13 1.92,-0.39 0.59,-0.26 1.11,-0.62 1.55,-1.07 0.44,-0.45 0.78,-1 1.01,-1.63 0.23,-0.63 0.35,-1.32 0.35,-2.06 0,-0.74 -0.12,-1.43 -0.35,-2.06 -0.23,-0.63 -0.57,-1.17 -1.01,-1.63 -0.44,-0.45 -0.96,-0.81 -1.55,-1.07 -0.59,-0.26 -1.23,-0.39 -1.92,-0.39 -0.71,0 -1.36,0.13 -1.94,0.39 -0.58,0.26 -1.09,0.62 -1.53,1.07 -0.44,0.45 -0.78,1 -1.01,1.63 -0.23,0.63 -0.35,1.32 -0.35,2.06 0,0.74 0.12,1.43 0.35,2.06 0.23,0.63 0.57,1.18 1.01,1.63 0.44,0.45 0.95,0.81 1.53,1.07 0.58,0.26 1.23,0.39 1.94,0.39 z"
   id="path181"
   style="fill:#ffffff" />&#10;					</g>&#10;					<g
   id="g183">&#10;						<path
   class="st38"
   d="m 2229.09,1787.11 c 0.22,0.17 0.58,0.37 1.09,0.6 0.51,0.23 1.11,0.45 1.81,0.66 0.7,0.21 1.5,0.39 2.39,0.54 0.89,0.15 1.83,0.23 2.82,0.23 1.13,0 1.98,-0.1 2.56,-0.31 0.58,-0.21 0.87,-0.57 0.87,-1.09 0,-0.55 -0.24,-0.93 -0.72,-1.13 -0.48,-0.21 -1.23,-0.38 -2.25,-0.52 l -2.14,-0.25 c -1.07,-0.14 -2.1,-0.34 -3.09,-0.6 -0.99,-0.26 -1.86,-0.65 -2.62,-1.15 -0.76,-0.51 -1.35,-1.16 -1.79,-1.96 -0.44,-0.8 -0.66,-1.8 -0.66,-3.01 0,-1.02 0.19,-1.96 0.56,-2.82 0.37,-0.86 0.96,-1.62 1.75,-2.27 0.8,-0.65 1.81,-1.15 3.05,-1.53 1.24,-0.37 2.71,-0.56 4.41,-0.56 1.73,0 3.22,0.11 4.47,0.33 1.25,0.22 2.33,0.56 3.24,1.03 0.52,0.27 0.94,0.61 1.26,1.01 0.32,0.4 0.47,0.89 0.47,1.46 0,0.44 -0.09,0.83 -0.27,1.17 -0.18,0.34 -0.39,0.64 -0.62,0.89 -0.23,0.25 -0.45,0.44 -0.66,0.58 -0.21,0.14 -0.34,0.22 -0.39,0.25 -0.08,-0.08 -0.31,-0.23 -0.68,-0.45 -0.37,-0.22 -0.87,-0.43 -1.48,-0.64 -0.62,-0.21 -1.36,-0.39 -2.23,-0.56 -0.87,-0.16 -1.85,-0.25 -2.95,-0.25 -1.24,0 -2.1,0.14 -2.58,0.43 -0.48,0.29 -0.72,0.67 -0.72,1.13 0,0.47 0.22,0.8 0.66,0.99 0.44,0.19 1.1,0.36 1.98,0.49 l 3.75,0.54 c 0.93,0.14 1.83,0.34 2.7,0.6 0.87,0.26 1.63,0.64 2.31,1.13 0.67,0.49 1.21,1.13 1.61,1.9 0.4,0.77 0.6,1.7 0.6,2.8 0,2.31 -0.88,4.11 -2.64,5.4 -1.76,1.29 -4.19,1.94 -7.3,1.94 -1.62,0 -3.06,-0.11 -4.31,-0.33 -1.25,-0.22 -2.33,-0.47 -3.24,-0.76 -0.91,-0.29 -1.64,-0.59 -2.21,-0.91 -0.56,-0.32 -0.96,-0.56 -1.18,-0.72 z"
   id="path182"
   style="fill:#ffffff" />&#10;					</g>&#10;					<g
   id="g184">&#10;						<path
   class="st38"
   d="m 2250.74,1801.78 v -17.81 c 0,-1.76 0.18,-3.28 0.54,-4.58 0.36,-1.29 0.87,-2.38 1.52,-3.26 1.04,-1.37 2.38,-2.42 4,-3.13 1.62,-0.71 3.42,-1.07 5.4,-1.07 1.62,0 3.13,0.27 4.51,0.8 1.39,0.54 2.59,1.29 3.61,2.25 1.02,0.96 1.81,2.13 2.39,3.5 0.58,1.38 0.87,2.89 0.87,4.54 0,1.68 -0.27,3.19 -0.8,4.54 -0.54,1.35 -1.26,2.5 -2.19,3.46 -0.92,0.96 -2,1.71 -3.24,2.23 -1.24,0.52 -2.56,0.78 -3.96,0.78 -1.54,0 -2.81,-0.24 -3.81,-0.72 -1,-0.48 -1.75,-0.97 -2.25,-1.46 v 9.94 h -6.59 z m 11.3,-13.72 c 1.37,0 2.51,-0.47 3.4,-1.42 0.89,-0.95 1.34,-2.16 1.34,-3.65 0,-1.48 -0.45,-2.68 -1.34,-3.59 -0.89,-0.91 -2.03,-1.36 -3.4,-1.36 -1.38,0 -2.51,0.44 -3.4,1.32 -0.89,0.88 -1.34,2.09 -1.34,3.63 0,0.71 0.12,1.38 0.35,2 0.23,0.62 0.56,1.15 0.99,1.61 0.43,0.45 0.93,0.81 1.5,1.07 0.58,0.25 1.21,0.39 1.9,0.39 z"
   id="path183"
   style="fill:#ffffff" />&#10;					</g>&#10;					<g
   id="g185">&#10;						<path
   class="st38"
   d="m 2277.29,1766.08 c 0,-1.07 0.32,-1.83 0.95,-2.27 0.63,-0.44 1.47,-0.66 2.52,-0.66 0.74,0 1.41,0.09 2,0.27 0.59,0.18 0.97,0.3 1.13,0.35 v 9.98 c 0.52,-0.47 1.24,-0.89 2.14,-1.28 0.91,-0.39 2.07,-0.58 3.5,-0.58 1.24,0 2.38,0.17 3.42,0.52 1.04,0.34 1.96,0.88 2.74,1.61 0.78,0.73 1.39,1.65 1.83,2.76 0.44,1.11 0.66,2.43 0.66,3.94 v 12.82 h -6.64 v -11.46 c 0,-1.4 -0.31,-2.42 -0.93,-3.05 -0.62,-0.63 -1.55,-0.95 -2.78,-0.95 -1.23,0 -2.2,0.37 -2.89,1.11 -0.69,0.74 -1.03,1.9 -1.03,3.46 v 10.88 h -6.64 v -27.45 z"
   id="path184"
   style="fill:#ffffff" />&#10;					</g>&#10;					<g
   id="g186">&#10;						<path
   class="st38"
   d="m 2308.95,1785.79 c 0.05,0.33 0.2,0.65 0.43,0.97 0.23,0.32 0.56,0.61 0.99,0.89 0.43,0.28 0.97,0.49 1.63,0.66 0.66,0.17 1.46,0.25 2.39,0.25 0.71,0 1.39,-0.06 2.02,-0.19 0.63,-0.12 1.18,-0.25 1.65,-0.39 0.47,-0.14 0.85,-0.27 1.15,-0.41 0.3,-0.14 0.48,-0.23 0.54,-0.29 l 2.31,4.62 c -0.22,0.14 -0.58,0.33 -1.09,0.58 -0.51,0.25 -1.15,0.49 -1.92,0.74 -0.77,0.25 -1.67,0.46 -2.7,0.64 -1.03,0.18 -2.16,0.27 -3.4,0.27 -1.54,0 -2.98,-0.25 -4.33,-0.74 -1.35,-0.49 -2.52,-1.22 -3.52,-2.16 -1,-0.95 -1.79,-2.11 -2.37,-3.48 -0.58,-1.37 -0.87,-2.94 -0.87,-4.7 0,-1.65 0.29,-3.16 0.87,-4.54 0.58,-1.37 1.37,-2.54 2.39,-3.5 1.02,-0.96 2.21,-1.71 3.59,-2.25 1.37,-0.54 2.86,-0.8 4.45,-0.8 1.48,0 2.82,0.2 4,0.6 1.18,0.4 2.18,0.94 2.99,1.63 0.81,0.69 1.43,1.47 1.85,2.35 0.43,0.88 0.64,1.79 0.64,2.72 0,1.02 -0.18,1.93 -0.54,2.74 -0.36,0.81 -1,1.5 -1.92,2.06 -0.92,0.56 -2.17,1 -3.75,1.3 -1.58,0.3 -3.59,0.45 -6.04,0.45 h -1.44 z m -0.33,-4.29 c 1.84,0 3.27,-0.07 4.29,-0.21 1.02,-0.14 1.77,-0.32 2.27,-0.54 0.49,-0.22 0.8,-0.47 0.91,-0.74 0.11,-0.27 0.16,-0.55 0.16,-0.82 0,-0.58 -0.26,-1.08 -0.78,-1.51 -0.52,-0.43 -1.31,-0.64 -2.35,-0.64 -0.74,0 -1.39,0.13 -1.94,0.39 -0.55,0.26 -1.01,0.6 -1.38,1.01 -0.37,0.41 -0.65,0.89 -0.85,1.42 -0.19,0.55 -0.3,1.09 -0.33,1.64 z"
   id="path185"
   style="fill:#ffffff" />&#10;					</g>&#10;					<g
   id="g187">&#10;						<path
   class="st38"
   d="m 2325.86,1780.35 c 0,-1.35 0.23,-2.54 0.68,-3.59 0.45,-1.04 1.08,-1.92 1.88,-2.64 0.8,-0.71 1.76,-1.26 2.89,-1.63 1.13,-0.37 2.36,-0.56 3.71,-0.56 1.65,0 2.93,0.18 3.85,0.54 0.92,0.36 1.59,0.74 2,1.15 0.25,0.28 0.44,0.56 0.58,0.87 0.14,0.3 0.21,0.66 0.21,1.07 0,0.41 -0.06,0.8 -0.19,1.15 -0.12,0.36 -0.28,0.67 -0.45,0.95 -0.18,0.28 -0.35,0.51 -0.52,0.7 -0.16,0.19 -0.29,0.33 -0.37,0.41 -0.47,-0.22 -1.03,-0.43 -1.69,-0.62 -0.66,-0.19 -1.39,-0.29 -2.19,-0.29 -1.04,0 -1.93,0.3 -2.66,0.91 -0.73,0.61 -1.09,1.61 -1.09,3.01 v 11.75 h -6.64 z"
   id="path186"
   style="fill:#ffffff" />&#10;					</g>&#10;					<g
   id="g188">&#10;						<path
   class="st38"
   d="m 2349.73,1785.79 c 0.05,0.33 0.2,0.65 0.43,0.97 0.23,0.32 0.56,0.61 0.99,0.89 0.43,0.28 0.97,0.49 1.63,0.66 0.66,0.17 1.46,0.25 2.39,0.25 0.71,0 1.39,-0.06 2.02,-0.19 0.63,-0.12 1.18,-0.25 1.65,-0.39 0.47,-0.14 0.85,-0.27 1.15,-0.41 0.3,-0.14 0.48,-0.23 0.54,-0.29 l 2.31,4.62 c -0.22,0.14 -0.58,0.33 -1.09,0.58 -0.51,0.25 -1.15,0.49 -1.92,0.74 -0.77,0.25 -1.67,0.46 -2.7,0.64 -1.03,0.18 -2.16,0.27 -3.4,0.27 -1.54,0 -2.98,-0.25 -4.33,-0.74 -1.35,-0.49 -2.52,-1.22 -3.53,-2.16 -1,-0.95 -1.79,-2.11 -2.37,-3.48 -0.58,-1.37 -0.87,-2.94 -0.87,-4.7 0,-1.65 0.29,-3.16 0.87,-4.54 0.58,-1.37 1.37,-2.54 2.39,-3.5 1.02,-0.96 2.21,-1.71 3.59,-2.25 1.37,-0.54 2.86,-0.8 4.45,-0.8 1.48,0 2.82,0.2 4,0.6 1.18,0.4 2.18,0.94 2.99,1.63 0.81,0.69 1.43,1.47 1.85,2.35 0.43,0.88 0.64,1.79 0.64,2.72 0,1.02 -0.18,1.93 -0.54,2.74 -0.36,0.81 -1,1.5 -1.92,2.06 -0.92,0.56 -2.17,1 -3.75,1.3 -1.58,0.3 -3.59,0.45 -6.04,0.45 h -1.43 z m -0.33,-4.29 c 1.84,0 3.27,-0.07 4.29,-0.21 1.02,-0.14 1.77,-0.32 2.27,-0.54 0.49,-0.22 0.8,-0.47 0.91,-0.74 0.11,-0.27 0.16,-0.55 0.16,-0.82 0,-0.58 -0.26,-1.08 -0.78,-1.51 -0.52,-0.43 -1.31,-0.64 -2.35,-0.64 -0.74,0 -1.39,0.13 -1.94,0.39 -0.55,0.26 -1.01,0.6 -1.38,1.01 -0.37,0.41 -0.65,0.89 -0.85,1.42 -0.2,0.55 -0.31,1.09 -0.33,1.64 z"
   id="path187"
   style="fill:#ffffff" />&#10;					</g>&#10;				</g>&#10;				<path
   class="st38"
   d="m 1997.31,1649.03 h -64.01 c -6.01,0 -11.61,-3.23 -14.62,-8.44 l -32.01,-55.43 c -3,-5.2 -3,-11.67 0,-16.88 l 32.01,-55.43 c 3.01,-5.21 8.61,-8.44 14.62,-8.44 h 64.01 c 6.01,0 11.61,3.23 14.62,8.44 l 32.01,55.43 c 3,5.2 3,11.67 0,16.88 l -32.01,55.43 c -3.01,5.21 -8.61,8.44 -14.62,8.44 z m -64,-140.39 c -4.5,0 -8.7,2.42 -10.95,6.32 l -32.01,55.43 c -2.25,3.9 -2.25,8.74 0,12.64 l 32.01,55.43 c 2.25,3.9 6.44,6.32 10.95,6.32 h 64.01 c 4.5,0 8.7,-2.42 10.95,-6.32 l 32.01,-55.43 c 2.25,-3.9 2.25,-8.74 0,-12.64 l -32.01,-55.43 c -2.25,-3.9 -6.44,-6.32 -10.95,-6.32 z"
   id="path189"
   style="fill:#ffffff" />&#10;				<text
   transform="translate(1918.2739,1601.9065)"
   class="st38 st39 st60"
   id="text189"
   style="font-size:70.3647px;font-family:AktivGrotesk-Bold;fill:#ffffff">XR</text>&#10;			</g>&#10;			<circle
   class="st61"
   cx="2327.5801"
   cy="1499.1"
   r="19.219999"
   id="circle190"
   style="fill:#ffffff;stroke:#1d1e1c;stroke-linecap:round;stroke-linejoin:round;stroke-miterlimit:10" />&#10;			<circle
   class="st61"
   cx="1787.78"
   cy="1763.25"
   r="19.219999"
   id="circle191"
   style="fill:#ffffff;stroke:#1d1e1c;stroke-linecap:round;stroke-linejoin:round;stroke-miterlimit:10" />&#10;		</g>&#10;		<polygon
   class="st62"
   points="2310.32,1659.46 2321.23,1659.46 2368.02,1659.46 2368.02,1602.37 2321.23,1602.37 2310.32,1602.37 2273.65,1602.37 2273.65,1615.64 2310.32,1615.64 2310.32,1646.2 2273.65,1646.2 2273.65,1659.46 "
   id="polygon191"
   style="fill:#ffffff;stroke:#3c3c3b;stroke-linecap:round;stroke-linejoin:round;stroke-miterlimit:10" />&#10;		<rect
   x="2287.6001"
   y="1622.34"
   class="st63"
   width="20.92"
   height="2.5899999"
   id="rect191"
   style="fill:#9c9c9a;stroke:#868686;stroke-linecap:round;stroke-linejoin:round;stroke-miterlimit:10" />&#10;		<rect
   x="2287.6001"
   y="1636.91"
   class="st63"
   width="20.92"
   height="2.5899999"
   id="rect192"
   style="fill:#9c9c9a;stroke:#868686;stroke-linecap:round;stroke-linejoin:round;stroke-miterlimit:10" />&#10;	</g><rect
   x="1671.4115"
   y="1072.7042"
   class="st61"
   width="13.62"
   height="63.130001"
   id="rect193"
   style="fill:#ffffff;stroke:#1d1e1c;stroke-linecap:round;stroke-linejoin:round;stroke-miterlimit:10" /><path
   class="st64"
   d="m 1685.0315,1110.2943 h 219.16 c 12.96,0 23.46,10.51 23.46,23.46 v 7.56 c 0,12.96 10.51,23.46 23.46,23.46 h 27.82"
   id="path194"
   style="fill:none;stroke:#9c9b9b;stroke-width:6;stroke-linecap:round;stroke-linejoin:round;stroke-miterlimit:10" /><path
   class="st65"
   d="m 3089.9615,1117.4243 c 3.25,-275.12005 -216.73,-503.90005 -491.78,-510.90005 -199.52,-5.08 -373.68,105.62 -460.16,269.71 l -50.23,-0.03 c -16.74,-0.01 -30.32,13.56 -30.32,30.3 v 52.1 h -68.43 c -5.58,0 -10.1,4.52 -10.1,10.1 v 285.68005 c 0,5.58 4.52,10.1 10.1,10.1 h 68.43 v 51.38 c 0,16.73 13.57,30.3 30.3,30.3 h 50.09 c 84.53,160.63 253.03,270.17 447.15,270.17 276.86,0 501.69,-222.81 504.95,-498.91 z m -1020.82,-202.54005 c 0,-11.42 9.26,-20.68 20.68,-20.68 11.42,0 20.68,9.26 20.68,20.68 0,11.42 -9.26,20.68 -20.68,20.68 -11.42,-0.01 -20.68,-9.26 -20.68,-20.68 z m 0,393.41005 c 0,-11.42 9.26,-20.68 20.68,-20.68 11.42,0 20.68,9.26 20.68,20.68 0,11.42 -9.26,20.68 -20.68,20.68 -11.42,0 -20.68,-9.26 -20.68,-20.68 z m 152.28,-196.95 c 0,-200.81005 162.79,-363.59005 363.59,-363.59005 200.8,0 363.59,162.79 363.59,363.59005 0,200.8 -162.79,363.59 -363.59,363.59 -200.8,0 -363.59,-162.78 -363.59,-363.59 z"
   id="path195"
   style="fill:url(#SVGID_22_);stroke:#585856;stroke-miterlimit:10" /><text
   transform="rotate(90)"
   class="st8 st9 st66"
   id="text195"
   style="font-size:42.7556px;font-family:Calibri-Bold;fill:#010100"
   x="1048.0077"
   y="-2105.448">XR-C10</text><g
   id="g210"
   transform="translate(-696.6085,-526.85573)">&#10;		<g
   id="g197">&#10;			<g
   id="g196">&#10;				<path
   class="st67"
   d="m 2878.97,1546.94 c 0,-0.18 -0.01,-0.36 -0.04,-0.55 -0.16,-1.02 -0.68,-1.87 -1.5,-2.46 -0.82,-0.59 -1.78,-0.82 -2.79,-0.66 -0.58,0.09 -1.12,0.33 -1.59,0.7 -0.43,0.34 -0.79,0.73 -1.06,1.16 -1.39,2.19 -2.57,4.18 -3.51,5.93 -0.54,1 -1.02,1.96 -1.44,2.88 l -0.22,0.47 -0.35,-0.38 c -0.69,-0.76 -1.45,-1.53 -2.24,-2.3 -1.45,-1.41 -3.17,-2.93 -5.1,-4.52 -0.4,-0.33 -0.86,-0.59 -1.38,-0.78 -0.57,-0.2 -1.15,-0.26 -1.73,-0.17 -1.01,0.16 -1.85,0.68 -2.44,1.5 -0.59,0.81 -0.82,1.78 -0.66,2.78 v 0.01 c 0.09,0.53 0.28,1 0.57,1.4 0.23,0.32 0.5,0.63 0.81,0.93 l 0.07,0.06 c 2.22,1.86 4.03,3.46 5.37,4.77 1.32,1.29 2.37,2.46 3.1,3.49 0.71,1 1.22,1.96 1.51,2.85 0.31,0.93 0.58,1.98 0.79,3.11 0.24,1.88 0.59,4.74 0.61,4.96 0.06,1.01 -0.07,2.13 -0.4,3.43 -0.32,1.26 -0.92,2.76 -1.78,4.46 -0.87,1.73 -2.15,3.95 -3.82,6.61 -0.53,0.91 -0.73,1.81 -0.6,2.68 0.16,1.02 0.68,1.86 1.5,2.45 0.82,0.59 1.78,0.82 2.79,0.66 0.58,-0.09 1.12,-0.33 1.59,-0.7 0.43,-0.34 0.78,-0.73 1.07,-1.18 1.34,-2.22 2.49,-4.21 3.43,-5.92 0.53,-0.98 1.02,-1.95 1.44,-2.87 l 0.22,-0.47 0.35,0.38 c 0.7,0.75 1.46,1.53 2.28,2.31 1.45,1.39 3.17,2.91 5.13,4.51 0.4,0.33 0.86,0.59 1.38,0.78 0.57,0.2 1.15,0.26 1.73,0.16 1,-0.16 1.85,-0.68 2.44,-1.5 0.59,-0.82 0.82,-1.78 0.66,-2.78 -0.14,-0.89 -0.62,-1.68 -1.45,-2.41 -2.42,-2 -4.35,-3.72 -5.72,-5.09 -1.34,-1.34 -2.38,-2.57 -3.08,-3.65 -0.68,-1.06 -1.16,-2.08 -1.41,-3.04 -0.27,-1.04 -0.53,-2.26 -0.75,-3.65 l -0.13,-0.82 c -0.2,-1.29 -0.3,-2.4 -0.31,-3.41 0.01,-0.97 0.16,-2.12 0.5,-3.33 0.35,-1.23 0.95,-2.69 1.8,-4.34 0.87,-1.68 2.11,-3.8 3.7,-6.3 l 0.05,-0.09 c 0.19,-0.37 0.35,-0.76 0.47,-1.13 0.1,-0.28 0.14,-0.6 0.14,-0.93 z"
   id="path196"
   style="fill:none;stroke:#1d1e1c;stroke-miterlimit:10" />&#10;			</g>&#10;		</g>&#10;		<g
   id="g200">&#10;			<g
   id="g198">&#10;				<path
   class="st55"
   d="m 2870.97,1497.38 c 1.31,0 2.48,0.26 3.5,0.78 1.02,0.52 1.87,1.23 2.55,2.14 0.68,0.91 1.2,1.96 1.55,3.15 0.35,1.19 0.53,2.47 0.53,3.85 0,1.35 -0.18,2.62 -0.53,3.83 -0.35,1.2 -0.87,2.25 -1.55,3.15 -0.68,0.89 -1.53,1.6 -2.55,2.12 -1.02,0.52 -2.19,0.78 -3.5,0.78 h -11.69 v -6.26 h 10.29 c 1.34,0 2.33,-0.31 2.97,-0.93 0.64,-0.62 0.97,-1.52 0.97,-2.68 0,-2.44 -1.31,-3.65 -3.94,-3.65 h -10.29 v -6.26 h 11.69 z"
   id="path197"
   style="fill:#1d1e1c" />&#10;			</g>&#10;			<g
   id="g199">&#10;				<path
   class="st55"
   d="m 2866.39,1527.3 c -0.3,0.05 -0.6,0.19 -0.89,0.41 -0.29,0.22 -0.56,0.53 -0.81,0.93 -0.25,0.4 -0.45,0.91 -0.61,1.54 -0.15,0.62 -0.23,1.37 -0.23,2.25 0,0.67 0.06,1.31 0.17,1.9 0.11,0.6 0.23,1.11 0.36,1.55 0.13,0.44 0.25,0.8 0.38,1.09 0.13,0.28 0.21,0.45 0.26,0.51 l -4.24,2.18 c -0.13,-0.21 -0.3,-0.55 -0.53,-1.03 -0.23,-0.48 -0.45,-1.08 -0.68,-1.81 -0.23,-0.73 -0.42,-1.57 -0.59,-2.55 -0.16,-0.97 -0.25,-2.04 -0.25,-3.21 0,-1.45 0.23,-2.81 0.68,-4.08 0.45,-1.27 1.12,-2.38 1.99,-3.32 0.87,-0.95 1.94,-1.69 3.2,-2.23 1.26,-0.54 2.7,-0.82 4.31,-0.82 1.51,0 2.9,0.27 4.16,0.82 1.26,0.54 2.33,1.3 3.22,2.25 0.88,0.96 1.57,2.09 2.06,3.38 0.49,1.3 0.74,2.69 0.74,4.2 0,1.4 -0.18,2.66 -0.55,3.77 -0.37,1.11 -0.86,2.05 -1.5,2.82 -0.63,0.76 -1.35,1.35 -2.16,1.75 -0.81,0.4 -1.64,0.6 -2.5,0.6 -0.93,0 -1.77,-0.17 -2.52,-0.51 -0.74,-0.34 -1.38,-0.94 -1.89,-1.81 -0.52,-0.87 -0.92,-2.05 -1.19,-3.54 -0.28,-1.49 -0.42,-3.39 -0.42,-5.69 v -1.35 z m 3.93,-0.31 c 0,1.74 0.06,3.08 0.19,4.04 0.13,0.96 0.29,1.67 0.49,2.14 0.2,0.47 0.43,0.75 0.68,0.86 0.25,0.1 0.5,0.16 0.76,0.16 0.53,0 0.99,-0.25 1.38,-0.74 0.39,-0.49 0.59,-1.23 0.59,-2.22 0,-0.7 -0.12,-1.31 -0.36,-1.83 -0.24,-0.52 -0.55,-0.95 -0.93,-1.3 -0.38,-0.35 -0.81,-0.62 -1.31,-0.8 -0.48,-0.18 -0.98,-0.28 -1.49,-0.31 z"
   id="path198"
   style="fill:#1d1e1c" />&#10;			</g>&#10;		</g>&#10;		<g
   id="g209">&#10;			<g
   id="g201">&#10;				<path
   class="st55"
   d="m 2871.67,1596.06 c 1.23,0 2.31,0.22 3.23,0.66 0.92,0.44 1.69,1.05 2.32,1.81 0.63,0.77 1.1,1.68 1.42,2.72 0.31,1.05 0.47,2.19 0.47,3.42 0,1.51 -0.25,2.86 -0.76,4.04 -0.5,1.18 -1.21,2.14 -2.12,2.87 0.91,0.73 1.61,1.68 2.12,2.83 0.5,1.16 0.76,2.49 0.76,4.01 0,1.21 -0.16,2.34 -0.47,3.38 -0.32,1.05 -0.79,1.95 -1.42,2.72 -0.63,0.77 -1.41,1.37 -2.32,1.81 -0.92,0.44 -2,0.66 -3.23,0.66 h -12.36 v -6.09 h 10.62 c 1.28,0 2.2,-0.26 2.76,-0.79 0.55,-0.53 0.83,-1.27 0.83,-2.23 0,-0.98 -0.33,-1.78 -0.98,-2.4 -0.66,-0.62 -1.7,-0.93 -3.14,-0.93 h -10.09 v -6.09 h 10.09 c 1.44,0 2.48,-0.3 3.14,-0.91 0.65,-0.6 0.98,-1.4 0.98,-2.38 0,-0.96 -0.28,-1.71 -0.83,-2.25 -0.55,-0.54 -1.47,-0.81 -2.76,-0.81 h -10.62 v -6.09 h 12.36 z"
   id="path200"
   style="fill:#1d1e1c" />&#10;			</g>&#10;			<g
   id="g202">&#10;				<path
   class="st55"
   d="m 2868.95,1630.41 c 1.46,0 2.81,0.28 4.04,0.83 1.23,0.55 2.31,1.32 3.21,2.29 0.91,0.97 1.62,2.1 2.14,3.38 0.52,1.28 0.77,2.67 0.77,4.16 0,1.46 -0.26,2.84 -0.77,4.14 -0.52,1.3 -1.23,2.43 -2.14,3.4 -0.91,0.97 -1.98,1.73 -3.21,2.29 -1.24,0.55 -2.58,0.83 -4.04,0.83 -1.46,0 -2.81,-0.28 -4.04,-0.83 -1.24,-0.55 -2.31,-1.32 -3.21,-2.29 -0.91,-0.97 -1.62,-2.1 -2.14,-3.4 -0.52,-1.3 -0.77,-2.68 -0.77,-4.14 0,-1.49 0.26,-2.87 0.77,-4.16 0.52,-1.29 1.23,-2.41 2.14,-3.38 0.91,-0.97 1.98,-1.73 3.21,-2.29 1.23,-0.55 2.58,-0.83 4.04,-0.83 z m -4.73,10.66 c 0,0.63 0.12,1.21 0.36,1.76 0.24,0.54 0.57,1.01 0.98,1.42 0.42,0.4 0.91,0.71 1.49,0.93 0.58,0.21 1.21,0.32 1.89,0.32 0.68,0 1.31,-0.11 1.89,-0.32 0.58,-0.21 1.08,-0.52 1.49,-0.93 0.42,-0.4 0.74,-0.88 0.98,-1.42 0.24,-0.54 0.36,-1.13 0.36,-1.76 0,-0.66 -0.12,-1.25 -0.36,-1.78 -0.24,-0.53 -0.57,-1 -0.98,-1.4 -0.42,-0.4 -0.91,-0.71 -1.49,-0.93 -0.58,-0.21 -1.21,-0.32 -1.89,-0.32 -0.68,0 -1.31,0.11 -1.89,0.32 -0.58,0.21 -1.08,0.52 -1.49,0.93 -0.42,0.4 -0.74,0.87 -0.98,1.4 -0.24,0.53 -0.36,1.13 -0.36,1.78 z"
   id="path201"
   style="fill:#1d1e1c" />&#10;			</g>&#10;			<g
   id="g203">&#10;				<path
   class="st55"
   d="m 2865.21,1655.89 c -0.15,0.2 -0.33,0.53 -0.55,1 -0.21,0.47 -0.42,1.02 -0.61,1.66 -0.19,0.64 -0.35,1.37 -0.49,2.19 -0.14,0.82 -0.21,1.68 -0.21,2.59 0,1.03 0.09,1.81 0.28,2.34 0.19,0.53 0.52,0.79 1,0.79 0.5,0 0.85,-0.22 1.04,-0.66 0.19,-0.44 0.35,-1.13 0.47,-2.06 l 0.23,-1.97 c 0.13,-0.98 0.31,-1.93 0.55,-2.83 0.24,-0.91 0.59,-1.71 1.06,-2.4 0.47,-0.69 1.06,-1.24 1.8,-1.64 0.73,-0.4 1.65,-0.61 2.76,-0.61 0.93,0 1.8,0.17 2.59,0.51 0.79,0.34 1.49,0.88 2.08,1.61 0.59,0.73 1.06,1.66 1.4,2.8 0.34,1.13 0.51,2.48 0.51,4.04 0,1.59 -0.1,2.95 -0.3,4.1 -0.2,1.15 -0.52,2.14 -0.95,2.97 -0.25,0.48 -0.56,0.86 -0.93,1.15 -0.37,0.29 -0.81,0.43 -1.34,0.43 -0.4,0 -0.76,-0.08 -1.08,-0.25 -0.32,-0.16 -0.59,-0.35 -0.81,-0.57 -0.22,-0.22 -0.4,-0.42 -0.53,-0.6 -0.13,-0.19 -0.2,-0.31 -0.23,-0.36 0.08,-0.08 0.21,-0.28 0.42,-0.62 0.2,-0.34 0.4,-0.79 0.59,-1.36 0.19,-0.57 0.36,-1.25 0.51,-2.04 0.15,-0.79 0.23,-1.7 0.23,-2.7 0,-1.13 -0.13,-1.92 -0.4,-2.36 -0.27,-0.44 -0.61,-0.66 -1.04,-0.66 -0.43,0 -0.73,0.2 -0.91,0.6 -0.18,0.4 -0.33,1.01 -0.45,1.81 l -0.49,3.44 c -0.13,0.86 -0.31,1.68 -0.55,2.48 -0.24,0.79 -0.59,1.5 -1.04,2.12 -0.45,0.62 -1.03,1.11 -1.74,1.47 -0.71,0.36 -1.56,0.55 -2.57,0.55 -2.12,0 -3.77,-0.81 -4.95,-2.42 -1.18,-1.61 -1.78,-3.84 -1.78,-6.69 0,-1.49 0.1,-2.8 0.3,-3.95 0.2,-1.15 0.43,-2.14 0.7,-2.97 0.26,-0.83 0.54,-1.51 0.83,-2.02 0.29,-0.52 0.51,-0.88 0.66,-1.08 z"
   id="path202"
   style="fill:#1d1e1c" />&#10;			</g>&#10;			<g
   id="g204">&#10;				<path
   class="st55"
   d="m 2851.75,1675.73 h 16.33 c 1.61,0 3.01,0.16 4.2,0.49 1.18,0.33 2.18,0.79 2.99,1.4 1.26,0.96 2.22,2.18 2.87,3.67 0.65,1.49 0.98,3.14 0.98,4.95 0,1.49 -0.25,2.87 -0.74,4.14 -0.49,1.27 -1.18,2.38 -2.06,3.31 -0.88,0.93 -1.95,1.66 -3.21,2.19 -1.26,0.53 -2.65,0.79 -4.16,0.79 -1.54,0 -2.92,-0.25 -4.16,-0.74 -1.24,-0.49 -2.29,-1.16 -3.17,-2 -0.88,-0.84 -1.56,-1.83 -2.04,-2.97 -0.48,-1.14 -0.72,-2.34 -0.72,-3.63 0,-1.41 0.22,-2.58 0.66,-3.5 0.44,-0.92 0.89,-1.61 1.34,-2.06 h -9.11 z m 12.59,10.36 c 0,1.26 0.43,2.3 1.3,3.12 0.87,0.82 1.98,1.23 3.35,1.23 1.37,0 2.46,-0.41 3.29,-1.23 0.83,-0.82 1.25,-1.86 1.25,-3.12 0,-1.26 -0.4,-2.3 -1.21,-3.12 -0.81,-0.82 -1.92,-1.23 -3.33,-1.23 -0.66,0 -1.27,0.11 -1.83,0.32 -0.57,0.21 -1.06,0.52 -1.47,0.91 -0.42,0.39 -0.74,0.85 -0.98,1.38 -0.25,0.53 -0.37,1.11 -0.37,1.74 z"
   id="path203"
   style="fill:#1d1e1c" />&#10;			</g>&#10;			<g
   id="g205">&#10;				<path
   class="st55"
   d="m 2884.48,1700.07 c 0.98,0 1.68,0.29 2.08,0.87 0.4,0.58 0.6,1.35 0.6,2.31 0,0.68 -0.08,1.29 -0.25,1.83 -0.16,0.54 -0.27,0.89 -0.32,1.04 h -9.15 c 0.43,0.48 0.82,1.13 1.17,1.97 0.35,0.83 0.53,1.9 0.53,3.21 0,1.13 -0.16,2.18 -0.47,3.14 -0.32,0.96 -0.81,1.8 -1.47,2.51 -0.67,0.72 -1.51,1.28 -2.53,1.68 -1.02,0.4 -2.22,0.6 -3.61,0.6 h -11.76 v -6.09 h 10.51 c 1.28,0 2.22,-0.28 2.8,-0.85 0.58,-0.57 0.87,-1.42 0.87,-2.55 0,-1.13 -0.34,-2.02 -1.02,-2.65 -0.68,-0.63 -1.74,-0.94 -3.17,-0.94 h -9.98 v -6.09 h 25.17 z"
   id="path204"
   style="fill:#1d1e1c" />&#10;			</g>&#10;			<g
   id="g206">&#10;				<path
   class="st55"
   d="m 2866.42,1729.1 c -0.3,0.05 -0.6,0.18 -0.89,0.4 -0.29,0.21 -0.56,0.52 -0.81,0.91 -0.25,0.39 -0.45,0.89 -0.6,1.49 -0.15,0.61 -0.23,1.34 -0.23,2.19 0,0.65 0.06,1.27 0.17,1.85 0.11,0.58 0.23,1.08 0.36,1.51 0.13,0.43 0.25,0.78 0.38,1.06 0.13,0.28 0.21,0.44 0.26,0.49 l -4.23,2.12 c -0.13,-0.2 -0.3,-0.54 -0.53,-1 -0.23,-0.47 -0.45,-1.05 -0.68,-1.76 -0.23,-0.71 -0.42,-1.53 -0.59,-2.48 -0.16,-0.95 -0.25,-1.98 -0.25,-3.12 0,-1.41 0.23,-2.73 0.68,-3.97 0.45,-1.24 1.11,-2.31 1.98,-3.23 0.87,-0.92 1.93,-1.64 3.19,-2.17 1.26,-0.53 2.7,-0.79 4.31,-0.79 1.51,0 2.9,0.27 4.16,0.79 1.26,0.53 2.33,1.26 3.21,2.19 0.88,0.93 1.57,2.03 2.06,3.29 0.49,1.26 0.74,2.62 0.74,4.08 0,1.36 -0.18,2.58 -0.55,3.67 -0.37,1.08 -0.86,2 -1.49,2.74 -0.63,0.74 -1.35,1.31 -2.15,1.7 -0.81,0.39 -1.64,0.59 -2.49,0.59 -0.93,0 -1.77,-0.16 -2.51,-0.49 -0.74,-0.33 -1.37,-0.91 -1.89,-1.76 -0.52,-0.84 -0.91,-1.99 -1.19,-3.44 -0.28,-1.45 -0.42,-3.29 -0.42,-5.54 z m 3.93,-0.3 c 0,1.69 0.06,3 0.19,3.93 0.13,0.93 0.29,1.62 0.49,2.08 0.2,0.45 0.43,0.73 0.68,0.83 0.25,0.1 0.5,0.15 0.76,0.15 0.53,0 0.99,-0.24 1.38,-0.72 0.39,-0.48 0.59,-1.2 0.59,-2.16 0,-0.68 -0.12,-1.27 -0.36,-1.78 -0.24,-0.5 -0.55,-0.93 -0.93,-1.27 -0.38,-0.34 -0.81,-0.6 -1.3,-0.77 -0.5,-0.17 -1,-0.27 -1.5,-0.29 z"
   id="path205"
   style="fill:#1d1e1c" />&#10;			</g>&#10;			<g
   id="g207">&#10;				<path
   class="st55"
   d="m 2871.41,1744.6 c 1.23,0 2.33,0.21 3.29,0.62 0.96,0.42 1.76,0.99 2.42,1.72 0.65,0.73 1.15,1.61 1.49,2.65 0.34,1.03 0.51,2.17 0.51,3.4 0,1.51 -0.16,2.69 -0.49,3.53 -0.33,0.84 -0.68,1.46 -1.06,1.83 -0.25,0.23 -0.52,0.4 -0.79,0.53 -0.28,0.13 -0.61,0.19 -0.98,0.19 -0.38,0 -0.73,-0.06 -1.06,-0.17 -0.33,-0.11 -0.62,-0.25 -0.87,-0.42 -0.25,-0.16 -0.47,-0.32 -0.64,-0.47 -0.18,-0.15 -0.3,-0.26 -0.38,-0.34 0.2,-0.43 0.39,-0.94 0.57,-1.55 0.18,-0.6 0.26,-1.27 0.26,-2 0,-0.96 -0.28,-1.77 -0.83,-2.44 -0.55,-0.67 -1.47,-1 -2.76,-1 h -10.77 v -6.09 h 12.09 z"
   id="path206"
   style="fill:#1d1e1c" />&#10;			</g>&#10;			<g
   id="g208">&#10;				<path
   class="st55"
   d="m 2866.42,1766.48 c -0.3,0.05 -0.6,0.18 -0.89,0.4 -0.29,0.21 -0.56,0.52 -0.81,0.91 -0.25,0.39 -0.45,0.89 -0.6,1.49 -0.15,0.61 -0.23,1.34 -0.23,2.19 0,0.65 0.06,1.27 0.17,1.85 0.11,0.58 0.23,1.08 0.36,1.51 0.13,0.43 0.25,0.78 0.38,1.06 0.13,0.28 0.21,0.44 0.26,0.49 l -4.23,2.12 c -0.13,-0.2 -0.3,-0.54 -0.53,-1 -0.23,-0.47 -0.45,-1.05 -0.68,-1.76 -0.23,-0.71 -0.42,-1.53 -0.59,-2.48 -0.16,-0.95 -0.25,-1.98 -0.25,-3.12 0,-1.41 0.23,-2.73 0.68,-3.97 0.45,-1.24 1.11,-2.31 1.98,-3.23 0.87,-0.92 1.93,-1.64 3.19,-2.17 1.26,-0.53 2.7,-0.79 4.31,-0.79 1.51,0 2.9,0.27 4.16,0.79 1.26,0.53 2.33,1.26 3.21,2.19 0.88,0.93 1.57,2.03 2.06,3.29 0.49,1.26 0.74,2.62 0.74,4.08 0,1.36 -0.18,2.58 -0.55,3.67 -0.37,1.08 -0.86,2 -1.49,2.74 -0.63,0.74 -1.35,1.31 -2.15,1.7 -0.81,0.39 -1.64,0.59 -2.49,0.59 -0.93,0 -1.77,-0.16 -2.51,-0.49 -0.74,-0.33 -1.37,-0.91 -1.89,-1.76 -0.52,-0.84 -0.91,-1.99 -1.19,-3.44 -0.28,-1.45 -0.42,-3.29 -0.42,-5.54 z m 3.93,-0.3 c 0,1.69 0.06,3 0.19,3.93 0.13,0.93 0.29,1.62 0.49,2.08 0.2,0.45 0.43,0.73 0.68,0.83 0.25,0.1 0.5,0.15 0.76,0.15 0.53,0 0.99,-0.24 1.38,-0.72 0.39,-0.48 0.59,-1.2 0.59,-2.16 0,-0.68 -0.12,-1.27 -0.36,-1.78 -0.24,-0.5 -0.55,-0.93 -0.93,-1.27 -0.38,-0.34 -0.81,-0.6 -1.3,-0.77 -0.5,-0.17 -1,-0.27 -1.5,-0.29 z"
   id="path207"
   style="fill:#1d1e1c" />&#10;			</g>&#10;		</g>&#10;	</g><g
   id="g215"
   transform="translate(-696.6085,-526.85573)">&#10;		<g
   id="g214">&#10;			<g
   id="g213">&#10;				<path
   class="st38"
   d="m 1532.61,1609.05 v 22.98 h -53.46 -3.32 l -2.97,0.08 -1.48,0.03 -1.48,0.11 -2.96,0.22 c -3.92,0.47 -7.84,1 -11.68,1.97 -7.7,1.75 -15.11,4.68 -22.08,8.38 -13.88,7.55 -25.78,18.77 -34.05,32.25 -8.23,13.49 -12.94,29.1 -13.21,44.94 l -0.18,6.89 c -0.01,1.24 -0.15,2.47 -0.23,3.71 -0.11,1.23 -0.16,2.47 -0.32,3.7 -0.32,2.46 -0.57,4.93 -1.05,7.36 -0.23,1.22 -0.42,2.45 -0.68,3.66 l -0.84,3.63 c -0.26,1.21 -0.6,2.41 -0.94,3.6 -0.35,1.19 -0.66,2.39 -1.04,3.57 -0.81,2.35 -1.53,4.72 -2.49,7.01 -1.75,4.65 -3.94,9.11 -6.28,13.48 -9.56,17.4 -23.78,32.13 -40.75,42.4 -16.98,10.24 -36.75,15.94 -56.56,16.18 l -1.85,0.04 h -1.67 -3.34 -6.68 -13.37 -26.73 l -213.97,-0.03 c -19.8,-0.19 -39.61,-5.72 -56.63,-15.93 -17.01,-10.2 -31.33,-24.84 -40.94,-42.21 -2.39,-4.34 -4.57,-8.81 -6.35,-13.45 -1.86,-4.6 -3.32,-9.36 -4.54,-14.16 -0.56,-2.42 -1.15,-4.83 -1.54,-7.28 -0.48,-2.44 -0.77,-4.9 -1.08,-7.36 -0.18,-1.23 -0.24,-2.47 -0.34,-3.7 -0.08,-1.24 -0.21,-2.47 -0.25,-3.71 l -0.1,-3.71 -0.04,-1.83 v -1.67 -53.46 h 22.98 v 53.46 1.67 l 0.03,1.51 0.07,2.97 c 0.03,0.99 0.14,1.97 0.21,2.96 0.08,0.98 0.12,1.98 0.27,2.95 0.25,1.96 0.47,3.92 0.86,5.86 0.3,1.95 0.78,3.87 1.22,5.79 0.98,3.82 2.12,7.61 3.62,11.27 1.41,3.69 3.16,7.24 5.05,10.7 7.64,13.84 19.1,25.53 32.65,33.66 13.57,8.13 29.26,12.52 45.1,12.68 l 213.71,0.03 53.28,-0.04 c 15.84,-0.19 31.5,-4.73 45.05,-12.87 13.51,-8.19 24.89,-19.96 32.49,-33.82 1.85,-3.48 3.62,-7.03 5,-10.73 0.77,-1.82 1.33,-3.72 1.98,-5.58 0.3,-0.94 0.54,-1.9 0.82,-2.84 0.27,-0.95 0.55,-1.89 0.75,-2.86 l 0.67,-2.88 c 0.21,-0.96 0.35,-1.94 0.53,-2.91 0.4,-1.94 0.57,-3.91 0.84,-5.86 0.13,-0.98 0.16,-1.97 0.25,-2.95 0.06,-0.99 0.19,-1.97 0.18,-2.96 l 0.16,-6.47 c 0.35,-19.82 6.25,-39.53 16.6,-56.43 10.37,-16.92 25.26,-30.97 42.7,-40.44 8.75,-4.66 18.07,-8.32 27.75,-10.53 4.82,-1.2 9.74,-1.9 14.66,-2.47 l 3.71,-0.28 1.85,-0.14 1.86,-0.05 3.71,-0.09 h 3.36 z"
   id="path210"
   style="fill:#ffffff" />&#10;				<path
   class="st68"
   d="m 1532.61,1632.02 h -53.46 -3.32 l -2.97,0.08 -1.48,0.03 -1.48,0.11 -2.96,0.22 c -3.92,0.47 -7.84,1 -11.68,1.97 -7.7,1.75 -15.11,4.68 -22.08,8.38 -13.88,7.55 -25.78,18.77 -34.05,32.25 -8.23,13.49 -12.94,29.1 -13.21,44.94 l -0.18,6.89 c -0.01,1.24 -0.15,2.47 -0.23,3.71 -0.11,1.23 -0.16,2.47 -0.32,3.7 -0.32,2.46 -0.57,4.93 -1.05,7.36 -0.23,1.22 -0.42,2.45 -0.68,3.66 l -0.84,3.63 c -0.26,1.21 -0.6,2.41 -0.94,3.6 -0.35,1.19 -0.66,2.39 -1.04,3.57 -0.81,2.35 -1.53,4.72 -2.49,7.01 -1.75,4.65 -3.94,9.11 -6.28,13.48 -9.56,17.4 -23.78,32.13 -40.75,42.4 -16.98,10.24 -36.75,15.94 -56.56,16.18 l -1.85,0.04 h -1.67 -3.34 -6.68 -13.37 -26.73 l -213.97,-0.03 c -19.8,-0.19 -39.61,-5.72 -56.63,-15.93 -17.01,-10.2 -31.33,-24.84 -40.94,-42.21 -2.39,-4.34 -4.57,-8.81 -6.35,-13.45 -1.86,-4.6 -3.32,-9.36 -4.54,-14.16 -0.56,-2.42 -1.15,-4.83 -1.54,-7.28 -0.48,-2.44 -0.77,-4.9 -1.08,-7.36 -0.18,-1.23 -0.24,-2.47 -0.34,-3.7 -0.08,-1.24 -0.21,-2.47 -0.25,-3.71 l -0.1,-3.71 -0.04,-1.83 v -1.67 -53.46"
   id="path211"
   style="fill:none;stroke:#585856;stroke-width:1.125;stroke-miterlimit:10" />&#10;				<path
   class="st68"
   d="m 1532.61,1609.05 h -53.46 -3.36 l -3.71,0.09 -1.86,0.05 -1.85,0.14 -3.71,0.28 c -4.92,0.57 -9.84,1.27 -14.66,2.47 -9.68,2.21 -19,5.88 -27.75,10.53 -17.44,9.47 -32.32,23.52 -42.7,40.44 -10.35,16.91 -16.25,36.62 -16.6,56.43 l -0.16,6.47 c 0,0.99 -0.12,1.97 -0.18,2.96 -0.09,0.98 -0.12,1.98 -0.25,2.95 -0.27,1.96 -0.44,3.93 -0.84,5.86 -0.18,0.97 -0.33,1.95 -0.53,2.91 l -0.67,2.88 c -0.2,0.97 -0.48,1.91 -0.75,2.86 -0.28,0.95 -0.52,1.9 -0.82,2.84 -0.66,1.86 -1.21,3.76 -1.98,5.58 -1.38,3.7 -3.14,7.25 -5,10.73 -7.61,13.86 -18.98,25.62 -32.49,33.82 -13.55,8.15 -29.2,12.69 -45.05,12.87 l -53.28,0.04 -213.71,-0.03 c -15.84,-0.16 -31.54,-4.55 -45.1,-12.68 -13.54,-8.13 -25.01,-19.82 -32.65,-33.66 -1.9,-3.46 -3.64,-7.01 -5.05,-10.7 -1.49,-3.66 -2.63,-7.45 -3.62,-11.27 -0.44,-1.92 -0.92,-3.84 -1.22,-5.79 -0.39,-1.94 -0.61,-3.9 -0.86,-5.86 -0.15,-0.98 -0.18,-1.97 -0.27,-2.95 -0.06,-0.99 -0.18,-1.97 -0.21,-2.96 l -0.07,-2.97 -0.03,-1.51 v -1.67 -53.46"
   id="path212"
   style="fill:none;stroke:#585856;stroke-width:1.125;stroke-miterlimit:10" />&#10;				<path
   class="st69"
   d="m 1532.61,1625.01 v 6.18 h -53.46 -3.32 l -3,0.08 -1.5,0.04 -1.49,0.11 -2.98,0.22 c -3.96,0.47 -7.92,1.01 -11.78,1.99 -7.78,1.77 -15.25,4.72 -22.29,8.45 -14.01,7.62 -26.02,18.94 -34.36,32.55 -8.31,13.61 -13.06,29.37 -13.33,45.36 l -0.18,6.88 c -0.01,1.23 -0.15,2.45 -0.23,3.68 -0.11,1.23 -0.16,2.45 -0.31,3.68 -0.32,2.44 -0.56,4.89 -1.05,7.31 -0.22,1.21 -0.42,2.43 -0.67,3.63 l -0.83,3.6 c -0.26,1.2 -0.6,2.39 -0.94,3.57 -0.34,1.18 -0.66,2.37 -1.03,3.55 -0.8,2.33 -1.52,4.69 -2.47,6.96 -1.73,4.61 -3.91,9.04 -6.24,13.38 -9.49,17.27 -23.61,31.89 -40.45,42.09 -16.86,10.17 -36.47,15.83 -56.14,16.06 l -1.84,0.04 h -1.67 -3.34 -6.68 -13.37 -26.73 l -213.96,-0.03 c -19.66,-0.19 -39.32,-5.68 -56.21,-15.81 -16.88,-10.12 -31.1,-24.66 -40.64,-41.9 -2.37,-4.31 -4.54,-8.75 -6.3,-13.35 -1.85,-4.57 -3.29,-9.29 -4.51,-14.06 -0.56,-2.4 -1.14,-4.79 -1.53,-7.23 -0.48,-2.42 -0.77,-4.86 -1.07,-7.3 -0.18,-1.22 -0.23,-2.45 -0.34,-3.67 -0.08,-1.23 -0.21,-2.45 -0.25,-3.68 l -0.09,-3.68 -0.04,-1.82 v -1.67 -53.46 h 6.18 v 53.46 c -0.03,2.18 0.08,4.59 0.12,6.89 0.04,1.16 0.16,2.32 0.24,3.48 0.1,1.16 0.15,2.32 0.32,3.47 0.29,2.31 0.56,4.62 1.01,6.9 0.36,2.3 0.92,4.56 1.44,6.83 1.15,4.5 2.51,8.97 4.26,13.28 1.67,4.34 3.72,8.53 5.96,12.61 9.01,16.3 22.46,30.04 38.41,39.6 15.96,9.57 34.52,14.76 53.11,14.94 l 213.89,0.03 53.53,-0.04 c 18.6,-0.22 37.11,-5.57 53.05,-15.17 15.91,-9.64 29.27,-23.46 38.23,-39.78 2.19,-4.1 4.26,-8.28 5.89,-12.64 0.9,-2.15 1.57,-4.38 2.33,-6.58 0.35,-1.11 0.65,-2.23 0.97,-3.35 0.32,-1.12 0.65,-2.24 0.89,-3.37 l 0.78,-3.4 c 0.24,-1.14 0.42,-2.29 0.63,-3.43 0.46,-2.28 0.68,-4.6 0.99,-6.91 0.15,-1.15 0.19,-2.32 0.29,-3.47 0.07,-1.16 0.21,-2.32 0.21,-3.48 l 0.17,-6.76 c 0.29,-17.06 5.36,-33.92 14.24,-48.45 8.91,-14.53 21.72,-26.62 36.69,-34.75 7.52,-3.99 15.51,-7.14 23.81,-9.03 4.13,-1.04 8.36,-1.62 12.59,-2.12 l 3.19,-0.24 1.59,-0.12 1.6,-0.04 3.2,-0.08 h 3.33 53.48 z"
   id="path213"
   style="fill:#edecec" />&#10;			</g>&#10;		</g>&#10;	</g><g
   id="g225"
   transform="translate(-696.6085,-526.85573)">&#10;		<path
   class="st70"
   d="m 1593.68,1607.16 v 29.42 l 35.66,20.91 c 3.88,2.28 8.3,3.48 12.8,3.48 h 85.38 v -76.4 h -85.82 c -4.22,0 -8.37,1.05 -12.08,3.07 z"
   id="path215"
   style="fill:#ffffff;stroke:#595957;stroke-width:1.1339;stroke-miterlimit:10" />&#10;		<rect
   x="1726.64"
   y="1649.39"
   class="st15"
   width="11.65"
   height="5.6700001"
   id="rect215"
   style="opacity:0.54;fill:#ffffff" />&#10;		<g
   id="g224">&#10;			<path
   class="st71"
   d="m 1642.2,1655.22 h 84.44 v 4.95 h -84.44 c -3.99,0 -7.87,-1.04 -11.03,-2.96 l -36.74,-20.99 v -5.3 l 36.74,21.34 c 3.16,1.92 7.04,2.96 11.03,2.96 z"
   id="path216"
   style="fill:#edebeb" />&#10;			<path
   class="st72"
   d="m 1727.51,1597.77 h -86.83 c -3.74,0 -7.38,0.87 -10.46,2.51 l -37.79,20.09 v -13.33 l 37.79,-20.09 c 3.07,-1.63 6.72,-2.51 10.46,-2.51 h 86.83 z"
   id="path217"
   style="fill:#c6c5c5" />&#10;			<rect
   x="1533.72"
   y="1607.03"
   class="st54"
   width="58.720001"
   height="8.04"
   id="rect217"
   style="opacity:0.32;fill:#221e20" />&#10;			<path
   class="st24"
   d="m 1593.68,1606.07 v 31.33 h -61.19 v -31.33 z m -2.48,29.42 v -27.51 h -56.24 v 27.51 z"
   id="path218"
   style="fill:#3c3c3b" />&#10;			<path
   class="st27"
   d="m 1575.9,1607.03 v 16.08 c 0,0.53 0.55,0.96 1.24,0.96 0.68,0 1.24,-0.43 1.24,-0.96 v -16.08 c 0,-0.53 -0.55,-0.96 -1.24,-0.96 -0.69,0 -1.24,0.43 -1.24,0.96 z"
   id="path219"
   style="fill:#00394a" />&#10;			<path
   class="st27"
   d="m 1561.48,1619.99 v 16.08 c 0,0.53 0.55,0.96 1.24,0.96 0.68,0 1.24,-0.43 1.24,-0.96 v -16.08 c 0,-0.53 -0.55,-0.96 -1.24,-0.96 -0.69,0 -1.24,0.43 -1.24,0.96 z"
   id="path220"
   style="fill:#00394a" />&#10;			<path
   class="st27"
   d="m 1545,1607.03 v 16.08 c 0,0.53 0.55,0.96 1.24,0.96 0.68,0 1.24,-0.43 1.24,-0.96 v -16.08 c 0,-0.53 -0.55,-0.96 -1.24,-0.96 -0.69,0 -1.24,0.43 -1.24,0.96 z"
   id="path221"
   style="fill:#00394a" />&#10;			<g
   id="g223">&#10;				<g
   id="g222">&#10;					<path
   class="st73"
   d="m 1694.53,1637.98 c -0.62,0 -1.21,-0.14 -1.72,-0.4 -0.39,-0.2 -0.78,-0.44 -1.16,-0.73 l -0.08,-0.07 c -2.31,-2.01 -4.28,-3.63 -5.85,-4.81 -1.54,-1.16 -2.92,-2.04 -4.09,-2.62 -1.13,-0.56 -2.18,-0.92 -3.12,-1.07 -1.01,-0.16 -2.13,-0.27 -3.33,-0.31 -1.92,0.06 -5.01,0.17 -5.24,0.18 -1.02,0.1 -2.13,0.41 -3.39,0.96 -1.24,0.54 -2.69,1.39 -4.29,2.55 -1.66,1.19 -3.74,2.88 -6.24,5.05 -0.94,0.77 -1.92,1.15 -2.94,1.15 h -0.01 c -1.17,0 -2.23,-0.44 -3.05,-1.27 -0.82,-0.83 -1.25,-1.88 -1.25,-3.06 0,-0.68 0.18,-1.34 0.51,-1.95 0.3,-0.54 0.68,-1.01 1.14,-1.41 2.09,-1.76 3.98,-3.3 5.63,-4.57 0.95,-0.73 1.87,-1.39 2.77,-1.99 -0.91,-0.61 -1.85,-1.28 -2.81,-2.01 -1.69,-1.29 -3.57,-2.84 -5.58,-4.62 -0.44,-0.39 -0.82,-0.86 -1.11,-1.41 -0.33,-0.61 -0.5,-1.27 -0.5,-1.96 0,-1.17 0.44,-2.23 1.27,-3.05 0.83,-0.82 1.88,-1.25 3.05,-1.25 h 0.01 c 1.02,0 2.01,0.4 2.98,1.2 2.49,2.2 4.59,3.92 6.23,5.12 1.6,1.17 3.03,2.04 4.26,2.58 1.18,0.52 2.29,0.84 3.29,0.94 1.11,0.11 2.42,0.18 3.89,0.18 h 0.88 c 1.31,0 2.48,-0.08 3.55,-0.24 1.01,-0.15 2.11,-0.5 3.29,-1.04 1.21,-0.55 2.61,-1.41 4.17,-2.56 1.6,-1.18 3.6,-2.82 5.94,-4.88 l 0.1,-0.08 c 0.38,-0.28 0.78,-0.53 1.17,-0.72 0.52,-0.26 1.09,-0.39 1.71,-0.39 0.01,0 0.01,0 0.02,0 1.17,0 2.23,0.44 3.05,1.27 0.82,0.83 1.26,1.88 1.25,3.06 0,0.69 -0.17,1.34 -0.51,1.95 -0.3,0.54 -0.68,1.02 -1.12,1.4 -2.06,1.81 -3.95,3.37 -5.63,4.65 -0.95,0.72 -1.88,1.39 -2.79,1.99 0.9,0.6 1.84,1.26 2.79,1.97 1.71,1.28 3.59,2.83 5.58,4.6 0.44,0.39 0.82,0.86 1.11,1.41 0.34,0.61 0.51,1.27 0.5,1.96 0,1.17 -0.44,2.23 -1.27,3.05 -0.82,0.82 -1.88,1.25 -3.05,1.25 z"
   id="path222"
   style="fill:none;stroke:#72716f;stroke-width:1.1339;stroke-miterlimit:10" />&#10;				</g>&#10;			</g>&#10;		</g>&#10;		<rect
   x="1727.51"
   y="1590.48"
   class="st74"
   width="12.41"
   height="64.57"
   id="rect224"
   style="fill:#e4f2f9;stroke:#595957;stroke-width:0.5;stroke-miterlimit:10" />&#10;		<rect
   x="1727.51"
   y="1590.48"
   class="st54"
   width="12.41"
   height="9.9200001"
   id="rect225"
   style="opacity:0.32;fill:#221e20" />&#10;	</g><g
   id="g235"
   transform="translate(-696.6085,-526.85573)">&#10;		<path
   class="st70"
   d="m 892.72,1617.04 h 29.42 l 20.91,-35.67 c 2.28,-3.88 3.48,-8.3 3.48,-12.8 v -85.38 h -76.4 v 85.82 c 0,4.22 1.05,8.37 3.07,12.08 z"
   id="path225"
   style="fill:#ffffff;stroke:#595957;stroke-width:1.1339;stroke-miterlimit:10" />&#10;		<rect
   x="934.94"
   y="1472.4301"
   class="st15"
   width="5.6700001"
   height="11.65"
   id="rect226"
   style="opacity:0.54;fill:#ffffff" />&#10;		<g
   id="g234">&#10;			<path
   class="st71"
   d="m 940.78,1568.52 v -84.44 h 4.95 v 84.44 c 0,3.99 -1.04,7.87 -2.96,11.03 l -20.99,36.74 h -5.3 l 21.35,-36.74 c 1.91,-3.16 2.95,-7.04 2.95,-11.03 z"
   id="path226"
   style="fill:#edebeb" />&#10;			<path
   class="st72"
   d="m 883.33,1483.21 v 86.83 c 0,3.74 0.87,7.38 2.51,10.46 l 20.09,37.79 H 892.6 l -20.09,-37.79 c -1.63,-3.07 -2.51,-6.72 -2.51,-10.46 v -86.83 z"
   id="path227"
   style="fill:#c6c5c5" />&#10;			<rect
   x="892.59003"
   y="1618.28"
   class="st54"
   width="8.04"
   height="58.720001"
   id="rect227"
   style="opacity:0.32;fill:#221e20" />&#10;			<path
   class="st24"
   d="m 891.63,1617.04 h 31.33 v 61.19 h -31.33 z m 29.42,2.48 h -27.51 v 56.24 h 27.51 z"
   id="path228"
   style="fill:#3c3c3b" />&#10;			<path
   class="st27"
   d="m 892.59,1634.82 h 16.08 c 0.53,0 0.96,-0.55 0.96,-1.24 0,-0.69 -0.43,-1.24 -0.96,-1.24 h -16.08 c -0.53,0 -0.96,0.55 -0.96,1.24 0,0.69 0.43,1.24 0.96,1.24 z"
   id="path229"
   style="fill:#00394a" />&#10;			<path
   class="st27"
   d="m 905.55,1649.24 h 16.08 c 0.53,0 0.96,-0.55 0.96,-1.24 0,-0.69 -0.43,-1.24 -0.96,-1.24 h -16.08 c -0.53,0 -0.96,0.55 -0.96,1.24 0,0.69 0.43,1.24 0.96,1.24 z"
   id="path230"
   style="fill:#00394a" />&#10;			<path
   class="st27"
   d="m 892.59,1665.72 h 16.08 c 0.53,0 0.96,-0.55 0.96,-1.24 0,-0.69 -0.43,-1.24 -0.96,-1.24 h -16.08 c -0.53,0 -0.96,0.55 -0.96,1.24 0,0.69 0.43,1.24 0.96,1.24 z"
   id="path231"
   style="fill:#00394a" />&#10;			<g
   id="g233">&#10;				<g
   id="g232">&#10;					<path
   class="st73"
   d="m 923.54,1516.19 c 0,0.62 -0.14,1.2 -0.4,1.72 -0.2,0.39 -0.44,0.78 -0.73,1.16 l -0.07,0.08 c -2.01,2.31 -3.63,4.28 -4.81,5.85 -1.16,1.54 -2.04,2.92 -2.62,4.09 -0.56,1.13 -0.92,2.18 -1.07,3.12 -0.16,1.01 -0.27,2.13 -0.31,3.33 0.06,1.92 0.17,5.01 0.18,5.24 0.1,1.02 0.41,2.13 0.96,3.39 0.54,1.24 1.39,2.69 2.55,4.3 1.19,1.66 2.88,3.74 5.05,6.24 0.77,0.94 1.15,1.92 1.15,2.94 v 0.01 c 0,1.17 -0.44,2.23 -1.27,3.05 -0.83,0.82 -1.88,1.25 -3.06,1.25 -0.68,0 -1.34,-0.18 -1.95,-0.51 -0.54,-0.3 -1.01,-0.68 -1.41,-1.14 -1.76,-2.09 -3.3,-3.98 -4.57,-5.63 -0.73,-0.95 -1.39,-1.87 -1.99,-2.77 -0.61,0.91 -1.28,1.85 -2.01,2.81 -1.29,1.69 -2.84,3.57 -4.62,5.58 -0.39,0.44 -0.86,0.82 -1.41,1.11 -0.61,0.33 -1.27,0.5 -1.96,0.5 -1.17,0 -2.23,-0.44 -3.05,-1.27 -0.82,-0.83 -1.25,-1.88 -1.25,-3.05 v -0.01 c 0,-1.02 0.4,-2.01 1.2,-2.98 2.2,-2.49 3.92,-4.59 5.12,-6.23 1.17,-1.6 2.04,-3.03 2.58,-4.26 0.52,-1.18 0.84,-2.29 0.94,-3.29 0.11,-1.11 0.18,-2.42 0.18,-3.89 v -0.88 c 0,-1.31 -0.08,-2.48 -0.24,-3.55 -0.15,-1.01 -0.5,-2.11 -1.04,-3.29 -0.55,-1.21 -1.41,-2.61 -2.56,-4.17 -1.18,-1.6 -2.82,-3.6 -4.88,-5.94 l -0.08,-0.1 c -0.28,-0.38 -0.53,-0.78 -0.72,-1.17 -0.26,-0.52 -0.39,-1.09 -0.39,-1.71 0,-0.01 0,-0.01 0,-0.02 0,-1.17 0.44,-2.23 1.27,-3.05 0.83,-0.82 1.88,-1.26 3.06,-1.25 0.69,0 1.34,0.17 1.95,0.51 0.54,0.3 1.02,0.68 1.4,1.12 1.81,2.06 3.37,3.95 4.65,5.63 0.72,0.95 1.39,1.88 1.99,2.79 0.6,-0.9 1.26,-1.84 1.97,-2.79 1.28,-1.71 2.83,-3.59 4.6,-5.58 0.39,-0.44 0.86,-0.82 1.41,-1.11 0.61,-0.34 1.27,-0.51 1.96,-0.5 1.17,0 2.23,0.44 3.05,1.27 0.82,0.82 1.25,1.88 1.25,3.05 z"
   id="path232"
   style="fill:none;stroke:#72716f;stroke-width:1.1339;stroke-miterlimit:10" />&#10;				</g>&#10;			</g>&#10;		</g>&#10;		<rect
   x="876.03998"
   y="1470.8"
   class="st74"
   width="64.57"
   height="12.41"
   id="rect234"
   style="fill:#e4f2f9;stroke:#595957;stroke-width:0.5;stroke-miterlimit:10" />&#10;		<rect
   x="876.03998"
   y="1470.8"
   class="st54"
   width="9.9200001"
   height="12.41"
   id="rect235"
   style="opacity:0.32;fill:#221e20" />&#10;	</g><text
   id="text236"
   x="1057.1256"
   y="1381.8811"
   style="font-size:53.3333px"><tspan
     x="1057.1256"
     y="1381.8811"
     class="st8 st9 st10"
     id="tspan235"
     style="font-size:53.3333px">XR-DW2 Antenna driver </tspan></text><text
   id="text238"
   x="2323.752"
   y="1123.3353"
   style="font-size:53.3333px"><tspan
     x="2323.752"
     y="1123.3353"
     class="st8 st9 st10"
     id="tspan237"
     style="font-size:53.3333px">XR-C10 RFID antenna</tspan></text><text
   id="text240"
   x="228.93761"
   y="1390.2457"
   style="font-size:53.3333px"><tspan
     x="228.93761"
     y="1390.2457"
     class="st8 st9 st10"
     id="tspan239"
     style="font-size:53.3333px">40cm X-talk cable</tspan></text><text
   id="text240-6"
   x="1710.1094"
   y="1232.1326"
   style="font-size:53.3333px"><tspan
     x="1710.1094"
     y="1232.1326"
     class="st8 st9 st10"
     id="tspan239-1"
     style="font-size:53.3333px">10cm link</tspan></text></g>&#10;</svg>
